<mxfile host="app.diagrams.net" agent="Mozilla/5.0 (Windows NT 10.0; Win64; x64) AppleWebKit/537.36 (KHTML, like Gecko) Chrome/138.0.0.0 Safari/537.36" version="28.0.4" pages="2">
  <diagram name="DER Database" id="U7axsigpVpRSWDLbqUgJ">
    <mxGraphModel dx="2524" dy="1209" grid="1" gridSize="10" guides="1" tooltips="1" connect="1" arrows="1" fold="1" page="1" pageScale="1" pageWidth="827" pageHeight="1169" math="0" shadow="0">
      <root>
        <mxCell id="0" />
        <mxCell id="1" parent="0" />
        <mxCell id="VLp49_EFWwgWr8ZocLG2-22" style="edgeStyle=orthogonalEdgeStyle;rounded=0;orthogonalLoop=1;jettySize=auto;html=1;exitX=1;exitY=0.5;exitDx=0;exitDy=0;entryX=0;entryY=0.5;entryDx=0;entryDy=0;shape=link;" edge="1" parent="1" source="VLp49_EFWwgWr8ZocLG2-25" target="VLp49_EFWwgWr8ZocLG2-42">
          <mxGeometry relative="1" as="geometry" />
        </mxCell>
        <mxCell id="VLp49_EFWwgWr8ZocLG2-24" style="edgeStyle=orthogonalEdgeStyle;rounded=0;orthogonalLoop=1;jettySize=auto;html=1;exitX=0.75;exitY=1;exitDx=0;exitDy=0;entryX=0;entryY=0.5;entryDx=0;entryDy=0;shape=link;" edge="1" parent="1" source="VLp49_EFWwgWr8ZocLG2-25" target="VLp49_EFWwgWr8ZocLG2-80">
          <mxGeometry relative="1" as="geometry" />
        </mxCell>
        <mxCell id="VLp49_EFWwgWr8ZocLG2-132" style="edgeStyle=orthogonalEdgeStyle;rounded=0;orthogonalLoop=1;jettySize=auto;html=1;exitX=0;exitY=1;exitDx=0;exitDy=0;entryX=0.5;entryY=0;entryDx=0;entryDy=0;shape=link;" edge="1" parent="1" source="VLp49_EFWwgWr8ZocLG2-25" target="VLp49_EFWwgWr8ZocLG2-108">
          <mxGeometry relative="1" as="geometry" />
        </mxCell>
        <mxCell id="VLp49_EFWwgWr8ZocLG2-25" value="PRODUCT" style="rounded=0;whiteSpace=wrap;html=1;" vertex="1" parent="1">
          <mxGeometry x="604" y="279.5" width="160" height="60" as="geometry" />
        </mxCell>
        <mxCell id="VLp49_EFWwgWr8ZocLG2-26" value="idProduct" style="ellipse;whiteSpace=wrap;html=1;" vertex="1" parent="1">
          <mxGeometry x="400" y="194.5" width="90" height="40" as="geometry" />
        </mxCell>
        <mxCell id="VLp49_EFWwgWr8ZocLG2-27" value="name" style="ellipse;whiteSpace=wrap;html=1;" vertex="1" parent="1">
          <mxGeometry x="390" y="240.11" width="90" height="40" as="geometry" />
        </mxCell>
        <mxCell id="VLp49_EFWwgWr8ZocLG2-28" value="description" style="ellipse;whiteSpace=wrap;html=1;" vertex="1" parent="1">
          <mxGeometry x="390.11" y="294.5" width="90" height="40" as="geometry" />
        </mxCell>
        <mxCell id="VLp49_EFWwgWr8ZocLG2-29" value="price" style="ellipse;whiteSpace=wrap;html=1;" vertex="1" parent="1">
          <mxGeometry x="410.43" y="154.5" width="90" height="40" as="geometry" />
        </mxCell>
        <mxCell id="VLp49_EFWwgWr8ZocLG2-30" value="brand" style="ellipse;whiteSpace=wrap;html=1;" vertex="1" parent="1">
          <mxGeometry x="520" y="97.40999999999997" width="90" height="40" as="geometry" />
        </mxCell>
        <mxCell id="VLp49_EFWwgWr8ZocLG2-31" value="created_at" style="ellipse;whiteSpace=wrap;html=1;" vertex="1" parent="1">
          <mxGeometry x="400" y="344.5" width="90" height="40" as="geometry" />
        </mxCell>
        <mxCell id="VLp49_EFWwgWr8ZocLG2-32" value="" style="endArrow=none;html=1;rounded=0;entryX=0;entryY=0.5;entryDx=0;entryDy=0;exitX=0.735;exitY=0.068;exitDx=0;exitDy=0;exitPerimeter=0;" edge="1" parent="1" source="VLp49_EFWwgWr8ZocLG2-31" target="VLp49_EFWwgWr8ZocLG2-25">
          <mxGeometry width="50" height="50" relative="1" as="geometry">
            <mxPoint x="570" y="429.5" as="sourcePoint" />
            <mxPoint x="620" y="379.5" as="targetPoint" />
          </mxGeometry>
        </mxCell>
        <mxCell id="VLp49_EFWwgWr8ZocLG2-35" value="" style="endArrow=none;html=1;rounded=0;entryX=0;entryY=0.5;entryDx=0;entryDy=0;exitX=1;exitY=0.5;exitDx=0;exitDy=0;" edge="1" parent="1" target="VLp49_EFWwgWr8ZocLG2-25" source="VLp49_EFWwgWr8ZocLG2-26">
          <mxGeometry width="50" height="50" relative="1" as="geometry">
            <mxPoint x="500" y="279.5" as="sourcePoint" />
            <mxPoint x="550" y="229.5" as="targetPoint" />
          </mxGeometry>
        </mxCell>
        <mxCell id="VLp49_EFWwgWr8ZocLG2-36" value="" style="endArrow=none;html=1;rounded=0;entryX=0;entryY=0.5;entryDx=0;entryDy=0;exitX=0.962;exitY=0.752;exitDx=0;exitDy=0;exitPerimeter=0;" edge="1" parent="1" target="VLp49_EFWwgWr8ZocLG2-25" source="VLp49_EFWwgWr8ZocLG2-29">
          <mxGeometry width="50" height="50" relative="1" as="geometry">
            <mxPoint x="500" y="219.5" as="sourcePoint" />
            <mxPoint x="550" y="169.5" as="targetPoint" />
          </mxGeometry>
        </mxCell>
        <mxCell id="VLp49_EFWwgWr8ZocLG2-37" value="" style="endArrow=none;html=1;rounded=0;entryX=0;entryY=0.5;entryDx=0;entryDy=0;" edge="1" parent="1" source="VLp49_EFWwgWr8ZocLG2-30" target="VLp49_EFWwgWr8ZocLG2-25">
          <mxGeometry width="50" height="50" relative="1" as="geometry">
            <mxPoint x="560" y="179.5" as="sourcePoint" />
            <mxPoint x="610" y="129.5" as="targetPoint" />
          </mxGeometry>
        </mxCell>
        <mxCell id="VLp49_EFWwgWr8ZocLG2-38" value="CATEGORY" style="rounded=0;whiteSpace=wrap;html=1;" vertex="1" parent="1">
          <mxGeometry x="1040" y="279.5" width="160" height="60" as="geometry" />
        </mxCell>
        <mxCell id="VLp49_EFWwgWr8ZocLG2-39" value="idCategory" style="ellipse;whiteSpace=wrap;html=1;" vertex="1" parent="1">
          <mxGeometry x="1270" y="235.11" width="90" height="40" as="geometry" />
        </mxCell>
        <mxCell id="VLp49_EFWwgWr8ZocLG2-40" value="" style="endArrow=none;html=1;rounded=0;exitX=1.027;exitY=0.384;exitDx=0;exitDy=0;exitPerimeter=0;entryX=0;entryY=0.5;entryDx=0;entryDy=0;" edge="1" parent="1" source="VLp49_EFWwgWr8ZocLG2-38" target="VLp49_EFWwgWr8ZocLG2-39">
          <mxGeometry width="50" height="50" relative="1" as="geometry">
            <mxPoint x="1220" y="249.5" as="sourcePoint" />
            <mxPoint x="1270" y="199.5" as="targetPoint" />
          </mxGeometry>
        </mxCell>
        <mxCell id="VLp49_EFWwgWr8ZocLG2-41" style="edgeStyle=orthogonalEdgeStyle;rounded=0;orthogonalLoop=1;jettySize=auto;html=1;exitX=1;exitY=0.5;exitDx=0;exitDy=0;entryX=0;entryY=0.5;entryDx=0;entryDy=0;shape=link;" edge="1" parent="1" source="VLp49_EFWwgWr8ZocLG2-42" target="VLp49_EFWwgWr8ZocLG2-38">
          <mxGeometry relative="1" as="geometry" />
        </mxCell>
        <mxCell id="VLp49_EFWwgWr8ZocLG2-42" value="belongs to" style="rhombus;whiteSpace=wrap;html=1;" vertex="1" parent="1">
          <mxGeometry x="830" y="274.5" width="160" height="70" as="geometry" />
        </mxCell>
        <mxCell id="VLp49_EFWwgWr8ZocLG2-43" value="description" style="ellipse;whiteSpace=wrap;html=1;" vertex="1" parent="1">
          <mxGeometry x="1270" y="289.5" width="90" height="40" as="geometry" />
        </mxCell>
        <mxCell id="VLp49_EFWwgWr8ZocLG2-44" value="" style="endArrow=none;html=1;rounded=0;entryX=0;entryY=0.5;entryDx=0;entryDy=0;" edge="1" parent="1" target="VLp49_EFWwgWr8ZocLG2-43">
          <mxGeometry width="50" height="50" relative="1" as="geometry">
            <mxPoint x="1200" y="304.5" as="sourcePoint" />
            <mxPoint x="1250" y="254.5" as="targetPoint" />
          </mxGeometry>
        </mxCell>
        <mxCell id="VLp49_EFWwgWr8ZocLG2-64" style="edgeStyle=orthogonalEdgeStyle;rounded=0;orthogonalLoop=1;jettySize=auto;html=1;exitX=0.5;exitY=1;exitDx=0;exitDy=0;entryX=0.5;entryY=0;entryDx=0;entryDy=0;shape=link;" edge="1" parent="1" source="VLp49_EFWwgWr8ZocLG2-65" target="VLp49_EFWwgWr8ZocLG2-71">
          <mxGeometry relative="1" as="geometry" />
        </mxCell>
        <mxCell id="VLp49_EFWwgWr8ZocLG2-65" value="IMAGES" style="rounded=0;whiteSpace=wrap;html=1;" vertex="1" parent="1">
          <mxGeometry x="603" y="7.409999999999968" width="160" height="60" as="geometry" />
        </mxCell>
        <mxCell id="VLp49_EFWwgWr8ZocLG2-66" value="idImage" style="ellipse;whiteSpace=wrap;html=1;" vertex="1" parent="1">
          <mxGeometry x="813" y="79" width="90" height="40" as="geometry" />
        </mxCell>
        <mxCell id="VLp49_EFWwgWr8ZocLG2-67" value="filename_image" style="ellipse;whiteSpace=wrap;html=1;" vertex="1" parent="1">
          <mxGeometry x="813" width="90" height="40" as="geometry" />
        </mxCell>
        <mxCell id="VLp49_EFWwgWr8ZocLG2-68" value="" style="endArrow=none;html=1;rounded=0;entryX=0;entryY=0.5;entryDx=0;entryDy=0;" edge="1" parent="1" target="VLp49_EFWwgWr8ZocLG2-67">
          <mxGeometry width="50" height="50" relative="1" as="geometry">
            <mxPoint x="763" y="40" as="sourcePoint" />
            <mxPoint x="813" y="-10" as="targetPoint" />
          </mxGeometry>
        </mxCell>
        <mxCell id="VLp49_EFWwgWr8ZocLG2-69" value="" style="endArrow=none;html=1;rounded=0;entryX=0;entryY=0.5;entryDx=0;entryDy=0;" edge="1" parent="1">
          <mxGeometry width="50" height="50" relative="1" as="geometry">
            <mxPoint x="763" y="40" as="sourcePoint" />
            <mxPoint x="813.0000000000057" y="96" as="targetPoint" />
          </mxGeometry>
        </mxCell>
        <mxCell id="VLp49_EFWwgWr8ZocLG2-70" style="edgeStyle=orthogonalEdgeStyle;rounded=0;orthogonalLoop=1;jettySize=auto;html=1;exitX=0.5;exitY=1;exitDx=0;exitDy=0;entryX=0.5;entryY=0;entryDx=0;entryDy=0;shape=link;" edge="1" parent="1" source="VLp49_EFWwgWr8ZocLG2-71" target="VLp49_EFWwgWr8ZocLG2-25">
          <mxGeometry relative="1" as="geometry" />
        </mxCell>
        <mxCell id="VLp49_EFWwgWr8ZocLG2-71" value="contains" style="rhombus;whiteSpace=wrap;html=1;" vertex="1" parent="1">
          <mxGeometry x="604" y="134.5" width="160" height="70" as="geometry" />
        </mxCell>
        <mxCell id="VLp49_EFWwgWr8ZocLG2-73" value="" style="shape=stencil(lVnbbhs5DP0avwq6S3zudv+jQNONsdmkSNPd7d/3CIYmFuk54wB5cGxyRiQPyUPqlD79ePzy/eEU/Y+315e/H/47f317PKU/TjGenx8fXs9v+HRKn0/p07eX14e/Xl9+Pn+9/P/9y5Acn/55+Xc84f+Lnne1DqXof12+KMmNf/H350X+6fx8JR9dlVU+u9725YsLSr46X/flm5Os5SXtywfvilJorpAXhOiKOlF3PhCFPH++OlJjRyrOqzfAC0yhuq4UoktMQZxvq4J34knUEOa0KgRXidGIc+r6SCJEIbuoFLJr7EhlnvhagSAJ0EhJK1CodoPVRKERZUL5yuia9xUSvB6NW0ngUtRozUKPlGDianQGWtkbijYaCtKJQnNZxcG7TtyaxKWs3crgnYNL1q0ESxlQa9pLLONydlkplPmI2wplYnNTCPMRtxXqdOJUgN8CSSB4XXkpJVr4YKKqxJEHDlALa11CSrGqMby+YikmJ8QG5FdoWoF5CXWuqyMF10kCoVanFa2h0zKDWt1WG0a1JWit3vk1DugYzOgaXCyLQp85e1seKb0iA/2H+KiajO7zi9vy1YX1PEJhUXFc5aEwS/PtjouflYfi/Oa2gmmIUJBCFKqra5kMwBEjAV3jCAqdOKl7l0UrRBKFDlx2bQNjAT3ppg4cVQK8bhqiuEyc1ItOBVQQJl9dXn3UXCSZ07suF8VFEoMuGtdpAuumvATdniO1VxCgtQQH18j5Jc+0fZdn9VSqK6u8p9VRZD7uXd4T/gL5VNV5CrNXdPWtszLtyXeVlunoQKprDo8SheA3C7cQB8qoxisUG/ETJXsKbQUR+iKNshg6X46sjmqA4fVa+qxVm4JwIHUzIgFa7EhdZ+Zo1cytfXp981Ka9WxPIawK4ImZH0kpgK8zkmePhD7buFuV0Z3yI+vVePR8FTY/ycmduPCUc1rgZdoELbLRD2i9M7kTNhfcm57wKeM6tgKApB7UJFVjwHPjh4pY2cr4nVUSlO8gDqoMIz0PAvFBBdMYUDHY8Gw7DxQo9kxrg9EUG6Z3jhUDqau2OZdCa/2N7p8ojbT0AkWMkTzLX8Ycyd5gCNKY8hiDMRQMzYRSMEPycqNc29LIgznSElUosEJsqfAYRRk7N2QbKZrYGwydh9F0QjIDw8GKwU4kCFxmClkfCVjK7EiYVFUCRRppDG0paAWGVoyFwew92aoHKd/NYpI1rJHyaushNEXH8Lwq1DQPuTuer2hFZNjIMJy45kNttNyXoFkAwCJ8iaG6YovUaEAtr1hChrA5DGAOKzSazNjvrXr6akOP1Oic50ZuU8h0YwCy5tXGoNHaOnZNK1rRADypfHblNnoScatd6gkiTWywa8PRV9nq06wxrvjKnbvPwRlJcbXbVbRuVlzt/la2pnTnhlgyPZLdQaPXd7ZHN1vuQQ4I+uweHQpsbrWbehjNImfvAmTr9XfeNgBMbJ6x9xlSKOmzNyYSKb7tnQwyiG0/7K2PeH7rY+6VoMCgYS6ucKLAyr0u3pBnpdVcvAnvDuZiD9BmSPVzpr2SZ8zez1ZzFTJGArxuJe8cdkdeEVYQTLYCNHtesD+W+2a4QuMpBNRWPsw54r7zoDkzgmHsBQni/lf+LJ3OGCZe4BuVPl/hAQSJbQw+epF8LI8P77fW385PT5dL7+vf9S03vrrckKfPvwE=);lineShape=1;strokeColor=light-dark(transparent,#FF3207);" vertex="1" parent="1">
          <mxGeometry x="1287.9012411628403" y="263.65512173973417" width="52.96083221787849" height="1.68935986574661" as="geometry" />
        </mxCell>
        <mxCell id="VLp49_EFWwgWr8ZocLG2-75" value="" style="shape=stencil(rVnJjhNBDP2aXK3alzPLfyAxMBHDDBqG7e95pVCdLjt5BIlbFru928/uQ3z19f7dl7tDcF9fnp8+3f04vn+5P8TXhxCOj/d3z8cXfDrEN4f46sPT893H56dvj+9P37+8G5Tj0+en7+MJP098TnoeTMH9Ov0QJZ9+eHsifzg+7sijJLeQF+n9OnmWXBfyJj5cJ69SgiJPRJkuqSzkVRoh927+fVY+FEIfxVflG8/osyS/0DupjL5IbYo+RELf5t9neucIfZfWFX0iwQpeyuofL4FEa6TKqk+QyOizlJU+SSDxGuFMOl7k+dHNcJ7TpzVCH6Su8R0ZQgIWEeDVAIQ8Eo/GqqsLIfhj00WG5CSvKQSbWT2mKE7laJBAVEomCDFRo1OTvEYhFnHErRlp5DVDYQxZnGKoNLFzMzZU8URCCeK6ZmBeKlApaYZIvFSqzj0YnRgDclMZHaWT6q8oxrVbjP7nCQPSezUa9eBY902SVxtGQ2YSik6NIYGkd20So5ZQmYQ+K3hXD4yhefGq4jJtSi3opoeuxIxuSVLQDK0ShjJ7xE6lziRsU2/nJU8YOuZA1F4KRKXuJTptQyfZ2qNOb/T6QCLdk+mtnRrdy0QGG8PWPC8zNB24PrvzZfquS7rTegO9gjo+zYK6xlCVU4GWSFfqm0e2FpBpnL3bBv42QRvtMkPEGje0Qs+tVm0JXYE1bzDkNQwokEaaNxjCKgHZmFgqoVOumYFs7ExCm8/bSaC5B1S6urXlGcvLDFWrVDNXqepkLRxn96qHaEIomZfqDNN+ALF0raa18sY3vKRKOnMbmsaHwFcM8IFBFUTnbazPIb4JCHQ6gEF5dUBuzqBWBoBMtvCMglu9CoRGc6/P502GXCe6uarSGobq/mr0Wg4YkpW7VU3phkcwhqZhLio0/1cGOx0cX37sAOocm9gR1zP3qxmiPfDcMGMaj2C91QKB7uiGa6EGVGJGWzADNzBwb+ESGCKTYAAZVGL5bSEfvMSghgWV8BJlMLC1cWxigTEkMKMt9G4cbFhw37a168b1AaFk4N4uKIgMQyd2BWqO1qhdssDABopd4wYDQTN2UQQDm9N2FR0SiNHJjKzGbyZYp/Nq9MhftuFHDeGQv6yRJaePDjXSVTSawV46vVsBdUbFkCe+ufFwUpJ4dgcxl5lSJpi49fSDhCcFZG9LmIoMhtrj1ShaJsFcxxAHppI9v537yI33PaBKxw6a5oAICSxw9kIJhkDqwZ5A0anYTe3CjbXxrUnfcEejInEzJ2JkUmEtQF+gQc86sT1wozxJ0Mz9HA7KRB80rFX/up38rtCrg2DhNxk3rx27hY+t0W62hg1+FppCbnpjt5ewqWA3Vj8jeBt9jHStN/og4onqo+wdVUf1Uf7025i7LV6VLrcmHRId+//4tuav5PhwfjH04fjwcHqvtP9fv0jCT6eXUPHNbw==);lineShape=1;strokeColor=light-dark(transparent,#FF3207);" vertex="1" parent="1">
          <mxGeometry x="836.7662859647144" y="107.91169027631486" width="39.62685010843765" height="1.1205887403599053" as="geometry" />
        </mxCell>
        <mxCell id="VLp49_EFWwgWr8ZocLG2-76" value="" style="shape=stencil(lVlJchxHDHzNXBG1L2dZ+ociRJkTpkkFRW2/d5YnqjkFdCc5t2ETWQ2ggMTSp/jh+/3nb3en4L6/PD/9c/fr/OXl/hT/OoVwfry/ez6/4NcpfjzFD1+fnu/+fn768fjl8ve3z0Ny/Pr36ec44fcF56TEAQruz+VBbdLc/08+XeQfzo9X8kGckU/hWD6K76t8lVaO5ZNEr+Ujkc+SmpZ3RP8q3pnz87F8Fx+0vbEey3svWQFwhCeAJNVrQEkE0MQXrVInLgp+nrcBihQGSNIVIM4w2QdUKXUFOAnES9FpQKk07GKUuhpd8vTbPqBKWAO1wA3kopOXtBqdi1RidIICeQVsR+yHKoxeYy8hVolKOUtZkwfv9O0YUJw2OiVJxK0l6XSGGzqxAdfkVi/FNm9mH9AlrDbEPJ/sJ6gXv7o1IqXIG2qQtsZSaJLJxVX4ZM04BHwjsYR0UV4CbTr2BuTDSgLI8kIuDinv1tDo0sg1NKdpsswH+/KI/VU+SSZx0YxPo2SmTxKv5ZmDGmhbeZQyUiuSu5JnQdSqVHUB0gkfNRQ9LV/Y+V26lk+sinhxWj4Qf/agyw4OIPr3KGGVd1PBffk0X/8qz7iuZyvPUqwXqw+tsmBrp+QDic+OfGlKnlV9yMeq7WX+77pkbglxJN9W+TIT4ki+r/p4RxPYO6cZApTS2BV0XcQ9qJhwEAB19elo3jggrzV5WM2iblNgA1RKvB2NjQI0WjEBUBUTKjEiBSCt1QbMSL3UZmNzVQsYdQGgqNGDq7lKGuClEjKyKtXZFL/T5ijtJqd6iSzZzK25ma3vDAvkAo9sHXeTXd8Z2In2yzZzGh1Z9nIz0mzeSf/Kw9TwyxsFbYfAMu3ILUOOKLqJguEmz224EWCKAlRizamtOgBUFnmmrI1Jhhlt6ubwErtpU5gBCCxYTeUHgJZ+01qA8jrr7RB8UQNos2OaIwAS69ZM9zUKA3uDbe8ytyHrYQ2AQtw6GlTzBjasoQPuXgMiiSW02NWZNzAvoYXyxktsqgBPqlrFdy+vq5aN6MM84mjQUfNj5NGKUUpRMeZHdg8Y1hTzvTGhYhxUxS1twXI0cMb1pjF3s64EI61f7yFHuoAZQ/OqUi60gI6xXK0WOm0BctY7IRzh2aZg60E2AK+JKc/mcQOUOZIdrUdUtFbelSByotq0FQ6Isxfcyi6GGAZwmmZapNE6qsGaQOCRRnIaGeyUSp3uIl7Hxm2Oj/OIw2XeWhRRkxox2q4LO19g2oUkAOwNZuM5+j9GS3qj2vn+0mxsr/qn962ExwuIQmblDHnWZ5iVNgzOJCrMynw04ER/pw3GBbDh3E1uuJJ35MLALso/ma7knOY7dDUsRp1e+XW+IzTdMJKmkA7Gylfa/xt9kMXuFntHbb/Fn40va8x9oVB36k/9yaLT+ejWTzRvy+PH6/egr+eHh8vnpOv/6+9HeHT59hQ//gc=);lineShape=1;strokeColor=light-dark(transparent,#FF3207);" vertex="1" parent="1">
          <mxGeometry x="420.3262231825355" y="219.49743315025205" width="49.352984333741745" height="3.2296570534166533" as="geometry" />
        </mxCell>
        <mxCell id="VLp49_EFWwgWr8ZocLG2-78" value="SIZE" style="rounded=0;whiteSpace=wrap;html=1;" vertex="1" parent="1">
          <mxGeometry x="975" y="394.5" width="160" height="60" as="geometry" />
        </mxCell>
        <mxCell id="VLp49_EFWwgWr8ZocLG2-79" style="edgeStyle=orthogonalEdgeStyle;rounded=0;orthogonalLoop=1;jettySize=auto;html=1;entryX=0;entryY=0.5;entryDx=0;entryDy=0;shape=link;" edge="1" parent="1" source="VLp49_EFWwgWr8ZocLG2-80" target="VLp49_EFWwgWr8ZocLG2-78">
          <mxGeometry relative="1" as="geometry" />
        </mxCell>
        <mxCell id="VLp49_EFWwgWr8ZocLG2-80" value="includes" style="rhombus;whiteSpace=wrap;html=1;" vertex="1" parent="1">
          <mxGeometry x="763" y="389.5" width="160" height="70" as="geometry" />
        </mxCell>
        <mxCell id="VLp49_EFWwgWr8ZocLG2-81" value="name" style="ellipse;whiteSpace=wrap;html=1;" vertex="1" parent="1">
          <mxGeometry x="1180" y="369.5" width="90" height="40" as="geometry" />
        </mxCell>
        <mxCell id="VLp49_EFWwgWr8ZocLG2-82" value="idSize" style="ellipse;whiteSpace=wrap;html=1;" vertex="1" parent="1">
          <mxGeometry x="1180" y="439.5" width="90" height="40" as="geometry" />
        </mxCell>
        <mxCell id="VLp49_EFWwgWr8ZocLG2-83" value="" style="endArrow=none;html=1;rounded=0;entryX=0;entryY=0.5;entryDx=0;entryDy=0;" edge="1" parent="1" target="VLp49_EFWwgWr8ZocLG2-82">
          <mxGeometry width="50" height="50" relative="1" as="geometry">
            <mxPoint x="1135" y="419.5" as="sourcePoint" />
            <mxPoint x="1175" y="359.5" as="targetPoint" />
          </mxGeometry>
        </mxCell>
        <mxCell id="VLp49_EFWwgWr8ZocLG2-85" value="" style="shape=stencil(rVlJbhtBDHyNrkTvy9lJ/mHAcizEsQ3b2X6fGgg9VpOakgLkpoU1TbLJ4jK7ePP2cPuy3wX39v76/G3/63D3/rCLn3YhHJ4e9q+Hd3zaxc+7eHP//Lr/+vr84+nu+P3ldpFcPn1//rk84fcR56T7BRTcn+MPzUs5/vLlKP94eDqRD5LaLO+kpW35KD1P8rVJ6NvyWXKa5ZOEui1fxcdJvnRJeVu+SZn1KUla2Zbv0md9ipcatuU9/p4BuUlmgCjJzYBMLfZZapkBQXojAOMjACo7oUmsGlCIDYiilDWA3TLCSKvkh6PPA5KOC5zgIgEUCUalTC4akRH7DIjU6IjAVxeXpBCj47mbTuQeYhGvbrpQo2MX1zQgEbcmOLFqQGWAfEalTvItNXHqHhCOhGCyG/xzAgjkHpboN25lKfqRX6f5QGyAAmUOjdSpDcWJV4AkiahUoMBsQ3JSSU4X2DADYuMn1EHTK6BIIbFUkdPzTcc8ous8IGiqjIguknEVsTSHxpKDDFDFzSegvERWHNrguQEAtWUS3ihmYb44sG1gAK8vDgWAqdSizrhK62dLmpbAhKy+Ff18z+XbYJQh7+gddIS2U/KePL+bhsFRfXqSqvVpJK47oljrkwkJ9y7BK3nnqLxKAzdYfEtecYWnEQf5ptJMIklLyHdFXrSsebfat3ZslwxWHZu/aHGbPepRaS+4KMyAJI7fWZxjCFl5wQbVXgDg2S00aU2rlAjZAVBUmkVaEgDIykueJw74fLah8UQw8oUSkVUoDXa90uJAy4F1qRtUeeWdOa6PCQoQEdPHRh3X34R1GA7YzJuk/Mkq+JnErJcMUJnfaX+6GKBC1EtjEWepK9IWwXKj5zZb8l3y8r8CTDmASoWFkak3S+YzMgrj7xMAG12Wipm0DcxLKMkaUGhNQ83X/FhH8G41FaovWqoa71qS6bwcO8EMFqhThdSptrYFJ80gi9a6tuBr4USnQLyE7jHOJ8Q0Joet/lQD+uDY84A4ythKAXF0S1s9dp6DL5XR12918V0B6tgGbM0JcWY9jC6s/8Ikomgbk3kjoYFZJ80nXJhqMU0pXiqOr4SyPqGkMVRuToSzDeXCCGlmztLGXuzKqbZg9CYn2LkZAEZkdjIHILLtgpn9S+frCLNdqI5Gq91fAMBy2m5IqqfrCLuDwVCZ2TbSbHmQg5kEn90j1USNtpuqZSHJAGZuhkpsw+it0ZG6ddnnVQ2ohJdQb1TGwQYWraj7aolZOXt7E62Vj7WYKdSKEXxO5yS978DkzQ4wK5ulSBKTix6DO+Y2lp96UYDOI7D14njaKt/HLZ530CivH1MYH1TXfdHJAax+ujE2XqnQuhZY5RvtAJy+MDiIFU+n6QudGdubO+0gNGaMH0233fm84PSuqfG52XR5LdOtPPyjXqQkumlaG7RVPtB2B9Ssnu+lU/l/exF0WR4fPt463R8eH48vrU7/12+p8NPxDVf8/Bc=);lineShape=1;strokeColor=light-dark(transparent,#CC0000);" vertex="1" parent="1">
          <mxGeometry x="1207.6888521585772" y="465.89089741996315" width="34.63049513182967" height="3.6049405660717455" as="geometry" />
        </mxCell>
        <mxCell id="VLp49_EFWwgWr8ZocLG2-86" value="SIZE" style="rounded=0;whiteSpace=wrap;html=1;" vertex="1" parent="1">
          <mxGeometry x="980" y="399.5" width="150" height="50" as="geometry" />
        </mxCell>
        <mxCell id="VLp49_EFWwgWr8ZocLG2-87" value="stock" style="ellipse;whiteSpace=wrap;html=1;" vertex="1" parent="1">
          <mxGeometry x="420" y="107.90999999999997" width="90" height="40" as="geometry" />
        </mxCell>
        <mxCell id="VLp49_EFWwgWr8ZocLG2-88" value="" style="endArrow=none;html=1;rounded=0;entryX=0.02;entryY=0.629;entryDx=0;entryDy=0;entryPerimeter=0;exitX=1;exitY=1;exitDx=0;exitDy=0;" edge="1" parent="1" target="VLp49_EFWwgWr8ZocLG2-25" source="VLp49_EFWwgWr8ZocLG2-87">
          <mxGeometry width="50" height="50" relative="1" as="geometry">
            <mxPoint x="490" y="169.5" as="sourcePoint" />
            <mxPoint x="540" y="119.5" as="targetPoint" />
          </mxGeometry>
        </mxCell>
        <mxCell id="VLp49_EFWwgWr8ZocLG2-89" value="(1,N)" style="text;html=1;align=center;verticalAlign=middle;whiteSpace=wrap;rounded=0;" vertex="1" parent="1">
          <mxGeometry x="680" y="249.5" width="60" height="30" as="geometry" />
        </mxCell>
        <mxCell id="VLp49_EFWwgWr8ZocLG2-90" value="(0,1)" style="text;html=1;align=center;verticalAlign=middle;whiteSpace=wrap;rounded=0;" vertex="1" parent="1">
          <mxGeometry x="670" y="67.40999999999997" width="60" height="30" as="geometry" />
        </mxCell>
        <mxCell id="VLp49_EFWwgWr8ZocLG2-91" value="1:N" style="text;html=1;align=center;verticalAlign=middle;whiteSpace=wrap;rounded=0;" vertex="1" parent="1">
          <mxGeometry x="753" y="154.5" width="60" height="30" as="geometry" />
        </mxCell>
        <mxCell id="VLp49_EFWwgWr8ZocLG2-95" value="(1,N)" style="text;html=1;align=center;verticalAlign=middle;whiteSpace=wrap;rounded=0;" vertex="1" parent="1">
          <mxGeometry x="990" y="309.5" width="60" height="30" as="geometry" />
        </mxCell>
        <mxCell id="VLp49_EFWwgWr8ZocLG2-96" value="(1,M)" style="text;html=1;align=center;verticalAlign=middle;whiteSpace=wrap;rounded=0;" vertex="1" parent="1">
          <mxGeometry x="750" y="279.5" width="60" height="30" as="geometry" />
        </mxCell>
        <mxCell id="VLp49_EFWwgWr8ZocLG2-97" value="M:N" style="text;html=1;align=center;verticalAlign=middle;resizable=0;points=[];autosize=1;strokeColor=none;fillColor=none;" vertex="1" parent="1">
          <mxGeometry x="885" y="245.11" width="50" height="30" as="geometry" />
        </mxCell>
        <mxCell id="VLp49_EFWwgWr8ZocLG2-98" value="(1,M)" style="text;html=1;align=center;verticalAlign=middle;whiteSpace=wrap;rounded=0;" vertex="1" parent="1">
          <mxGeometry x="710" y="334.5" width="60" height="30" as="geometry" />
        </mxCell>
        <mxCell id="VLp49_EFWwgWr8ZocLG2-99" value="(1,N)" style="text;html=1;align=center;verticalAlign=middle;whiteSpace=wrap;rounded=0;" vertex="1" parent="1">
          <mxGeometry x="923" y="394.5" width="60" height="30" as="geometry" />
        </mxCell>
        <mxCell id="VLp49_EFWwgWr8ZocLG2-100" value="M:N" style="text;html=1;align=center;verticalAlign=middle;resizable=0;points=[];autosize=1;strokeColor=none;fillColor=none;" vertex="1" parent="1">
          <mxGeometry x="818" y="359.5" width="50" height="30" as="geometry" />
        </mxCell>
        <mxCell id="VLp49_EFWwgWr8ZocLG2-104" value="" style="endArrow=none;html=1;rounded=0;" edge="1" parent="1">
          <mxGeometry width="50" height="50" relative="1" as="geometry">
            <mxPoint x="480.11" y="264.5" as="sourcePoint" />
            <mxPoint x="610" y="309.5" as="targetPoint" />
          </mxGeometry>
        </mxCell>
        <mxCell id="VLp49_EFWwgWr8ZocLG2-105" value="" style="endArrow=none;html=1;rounded=0;" edge="1" parent="1">
          <mxGeometry width="50" height="50" relative="1" as="geometry">
            <mxPoint x="480" y="319.5" as="sourcePoint" />
            <mxPoint x="600" y="309.5" as="targetPoint" />
          </mxGeometry>
        </mxCell>
        <mxCell id="VLp49_EFWwgWr8ZocLG2-107" value="GENDER" style="rounded=0;whiteSpace=wrap;html=1;" vertex="1" parent="1">
          <mxGeometry x="234" y="429.5" width="160" height="60" as="geometry" />
        </mxCell>
        <mxCell id="VLp49_EFWwgWr8ZocLG2-108" value="is associated with a&amp;nbsp;" style="rhombus;whiteSpace=wrap;html=1;" vertex="1" parent="1">
          <mxGeometry x="444" y="424.5" width="160" height="70" as="geometry" />
        </mxCell>
        <mxCell id="VLp49_EFWwgWr8ZocLG2-109" value="idGender" style="ellipse;whiteSpace=wrap;html=1;" vertex="1" parent="1">
          <mxGeometry x="70" y="404.5" width="90" height="40" as="geometry" />
        </mxCell>
        <mxCell id="VLp49_EFWwgWr8ZocLG2-110" value="name" style="ellipse;whiteSpace=wrap;html=1;" vertex="1" parent="1">
          <mxGeometry x="70" y="469.5" width="90" height="40" as="geometry" />
        </mxCell>
        <mxCell id="VLp49_EFWwgWr8ZocLG2-111" value="" style="endArrow=none;html=1;rounded=0;exitX=0.5;exitY=0;exitDx=0;exitDy=0;" edge="1" parent="1" source="VLp49_EFWwgWr8ZocLG2-107">
          <mxGeometry width="50" height="50" relative="1" as="geometry">
            <mxPoint x="270" y="479.5" as="sourcePoint" />
            <mxPoint x="320" y="429.5" as="targetPoint" />
          </mxGeometry>
        </mxCell>
        <mxCell id="VLp49_EFWwgWr8ZocLG2-113" value="" style="shape=stencil(lVnZchQ5EPyaea3QfTyz8B9EYNYTeG3CGHb5e0o7oaZVOZ0zvA1NpaW6sg6d4rtvjx+/PpyC+/b2+vLl4d/zp7fHU/zrFML5+fHh9fymv07x/Sm++/zy+vD368v350+Xf3/9OCTHr39efoy/8N8F56TXAQru5+VDTFL9/18+XOSfzs87+SAhWfnUjuWjJG/lXT+Wz5LMfYJ0Il8lxFXeS3PH8k16W+WdtHIs751ktwBCl1YJIEx77ACFAaKUaAE9EUCSlqwOgfjAl2nCPYAY1XcJ1QIysZKGUUKzEh00jkq2gBoIIEpf/aCOZoGkkRS9BdArVfFGhySRXalDLmg0ktjTC9grdYnErDFKXP2Qtny9DsjisgWw4IsF8q1LZflcJz1sgCaVKa3pYgBFMvFD8jbj1A+ZXCkFacFyRiOhkRKEt55JSC8VcRDehZ2gsbRmnBJPJrGU2syvDZClktDImnGGNRIlgQxW0pRqDJAlwwmN6JAbnKB2I54uXrpRWu1GlC5p+nVnVscAVZKzAGbW0sU7e6VMwrs6sFKWHgnAT3LfmTWzChctVQ5PE7PWPJl0d6VIPF3rrGg7x2XCGrWDH8qk5+tV10ONK+KJDi2C47IUBsgSIIEYa7Rqc3pYifihNVA6zyy/CujOsrc6zpPQ6F6qCQ03v1wHxJlfE6ClnhX2rpGzkrH3tAJ1dZOp07Phui7fxa1+c/PDkXxcY9VTr6l8WRUoU6Mj+bYGnt860iOA5aQwmfagQXRWZS0/rG8YR6x30grGeFIBdQ0kZf8bVsqrVXO9dUJYAUUjLxNAs+2YkjlVuk2S267UpDAdmsTVSjmK5yd4Y9Y8tToCODM7ZDo7IEAZgA0PeCXNz8SvZNKh0ekKrRpoTUe3OU5hEBeONnsYeInTS5/VeDOQo+0n5s6YVdgog+k5ZkCusx2JG20nkWO0/WMtAJKY9lqe1NvBkiYX9EyWnkrDhia9JK7DHwLK7Db3jMFcnWZ13QBp1vij4mbmMe3mIlPaWz+Uzh0HBVqbM3YlbAG0/WNXwiZDAZ4BoI0pW0G6s1G6oTS2YgpgSmOzVxptxbCdVACbWrFhHVYiSmNLrI6LTAdouvUEZlZs69VKhTA3Dg6qtCNMhqNJKbSY4PCjf4JV0DFegR8Ya4wBLlorFWLWMSKaBIpzxXE0hHbj6XprzDUnaIYUNqrrfLfq0MOktqNRPa6hMaiNWAmXAX1bKt65bhh9AVEaFxp6pcrWDbAy6XmG451LmcG2JKdx7dNvbKJgsdQ6HRFxddU6dRwux9qNTRSs30YBYLtuWPBpLCWiNK4Q1Q+sPuCSsteZg3euQUcLSIIPF60jWtmVYJXbG70SLou1mfDErLiOHv0N21/DwnsAWNMHK/XRaLKVOiztd33jne8Cfcup+x4ehlmJPDxs9ErfHeDhRDmDVQd4mNFQZWsoePjpfPsBD0vaALKK64C3+UORmxvbTZ7vcB1MVpXGkJsd+Sbvad64uYjcKlumG18YS7Q4M25BeU8fG+A+OdHOE/TVwsgeZMCeWrXYIAb+irwIQjxEHp9/+pB5W15//H41/Xx+ero8uu7/376y6qfLC218/ws=);lineShape=1;strokeColor=light-dark(transparent,#FF3207);" vertex="1" parent="1">
          <mxGeometry x="90.00468341511396" y="429.50230241467864" width="45.76427750374712" height="1.4795194663256184" as="geometry" />
        </mxCell>
        <mxCell id="VLp49_EFWwgWr8ZocLG2-116" style="edgeStyle=orthogonalEdgeStyle;rounded=0;orthogonalLoop=1;jettySize=auto;html=1;exitX=1;exitY=0.5;exitDx=0;exitDy=0;entryX=0.06;entryY=0.466;entryDx=0;entryDy=0;entryPerimeter=0;shape=link;" edge="1" parent="1" source="VLp49_EFWwgWr8ZocLG2-107" target="VLp49_EFWwgWr8ZocLG2-108">
          <mxGeometry relative="1" as="geometry" />
        </mxCell>
        <mxCell id="VLp49_EFWwgWr8ZocLG2-117" value="USER" style="rounded=0;whiteSpace=wrap;html=1;" vertex="1" parent="1">
          <mxGeometry x="1066.9999999999998" y="875" width="160" height="60" as="geometry" />
        </mxCell>
        <mxCell id="VLp49_EFWwgWr8ZocLG2-118" value="idUser" style="ellipse;whiteSpace=wrap;html=1;" vertex="1" parent="1">
          <mxGeometry x="1269.9999999999998" y="1005" width="90" height="40" as="geometry" />
        </mxCell>
        <mxCell id="VLp49_EFWwgWr8ZocLG2-119" value="username" style="ellipse;whiteSpace=wrap;html=1;" vertex="1" parent="1">
          <mxGeometry x="1332.3399999999997" y="950" width="90" height="40" as="geometry" />
        </mxCell>
        <mxCell id="VLp49_EFWwgWr8ZocLG2-120" value="password" style="ellipse;whiteSpace=wrap;html=1;" vertex="1" parent="1">
          <mxGeometry x="1379.9999999999998" y="900" width="90" height="40" as="geometry" />
        </mxCell>
        <mxCell id="VLp49_EFWwgWr8ZocLG2-121" value="Role" style="ellipse;whiteSpace=wrap;html=1;" vertex="1" parent="1">
          <mxGeometry x="1359.9999999999995" y="850" width="90" height="40" as="geometry" />
        </mxCell>
        <mxCell id="VLp49_EFWwgWr8ZocLG2-127" value="" style="shape=stencil(lVlJchsxDHyNrijuJM5Z/pGqOLEqjp1ynO33aUbFiQhqWvJNltEaAmwADcwhvvl+/+Hb3SG47y/PT1/ufh0/vtwf4ttDCMfH+7vn4ws+HeK7Q3zz6en57vPz04/Hj6e/v33olv3T16ef/Rd+n3BOauig4P6cvkhZgv/3zfuT/cPx8cw+iJvtYxYN+/ZJYpvtnZSyb58lG/sgLe/bF2l+ti/i3L59E59ne5Ua9+1V4vz7yYnWfXvvJMcZ4CWTA3kvrVhAUwKI4g1gu5TLgCTFW0AiPvsiYb6EFCWxJzRxc1RTkpwIi5w4E6UivhEAYpIsgPEiRCl1BlTqA5hXjQ9NKrmHTiU3ATKoTZ4A5huuZi9KohQXH3IQJVwC9+PsQ46SiQ8gv7mHnIZXl9PZS0kWkEg+gzlaLYAlXCdCsU4nQg1c0wUukRRNOri51YAqymqSGwk5ACgLrEjixKbKoG4G4kOP+pxxyEFPqJGzrRooC5HcdG7jxBsg0IsrTvwcVtQRRy6u4PfU+sASqKQR9Q3QpBHylSphPhLqSGDNQce/zwCRUKP6wZwzgCc5XaMEtYBCqFGzjRJKW2SAOtLlDMDYWlVasADWUBoaVLA+VEK+hipk2Kqj8FwGJJvTvvIjZYnzkcClwto6qGbonUcYLgNQvdUCIgmromWZJ0T6BA0LwHOpgVI5AxqlkmYpswuJH6jajA40e1TFz+dxVFrBPpqQ0p4O+2I6rlRubzQAxBZr6QCY3gPaZaZj3ObhFiKwgt2Zjg6+9ZJIq2R3Yn4CenBjt6xWEUNbKQ+TyR0oHyZZAXBGW7VRpC4DIIyMAi20RQNgRfHWIfcARsj0MYOUJADCfCQkD7vqDlhaAxtM+pEM+yKVGd3pOX3K6Nm7UZ0fEGiv6tc237Pj5wEvnLHPV4g3Z0+8lgp1Tv9Gm0JPHSMw8iDizdkZpPKKZApA3Maz3eycaQRpeOUJxaRC5KmgkswwBlXDmK22aiM7WSt8PQAHcBYQGSDbQQYAZVedLFWhkJnCQO+0s9WV5AE15ipZ/GjwN/Z/yFFWklaFUSKlxqphoJCVJNyqkuBDIWxddVgX7SRKq9LDWMBa7qolc6Uz7qpWAcgkrKse7pMKCeuquAFgQ/Gq6TNykI0Zy9QAAKPGOpcAEEgpXiefsu3hbpyt8A3Tkuv0VjKt9ut8CK/YJqBPoIZ8Zez69mbcMPe3wvVqn/ud9SEwwHLTuEpHikBSu/MBHdlNo86ZFG2O1lYII1NbG9+vrvuSViWxbcaykWmVUmPd+bRGb3rdKjXeUNa9VVPaUNbNmPLBft29qR8y+cbtHqYtVgTW/aHy6WTdUKJNxlftQLWMifHGLSs6dyFRWve4/zXmjZvirm+u7KLnI52JtN11d7aPaCSufcZTC2C1Um0hg9PsDUW1Exyi6ugbBxsjMInVDDs3ID89fcOSTcVoNBe8FTKgEZsPne098JcR29mO3uND4uns2NMTh4gSZ2USUtmT+uVskYcyY3MJ+LiWbJIEy5BRE60Ui33h47azWQyVx/jsln04LxNLPDNfwyz3hYGEKYXXvjG8bo8P/19Pfjo+PJzebp7/377OxFenV6Hx3V8=);lineShape=1;strokeColor=light-dark(transparent,#FF3207);" vertex="1" parent="1">
          <mxGeometry x="1297.3418149599179" y="1029.9969450175465" width="35.321106250792944" height="1.276317124782654" as="geometry" />
        </mxCell>
        <mxCell id="VLp49_EFWwgWr8ZocLG2-129" value="" style="endArrow=none;html=1;rounded=0;entryX=0;entryY=0.5;entryDx=0;entryDy=0;" edge="1" parent="1" target="VLp49_EFWwgWr8ZocLG2-107">
          <mxGeometry width="50" height="50" relative="1" as="geometry">
            <mxPoint x="160" y="494.5" as="sourcePoint" />
            <mxPoint x="210" y="444.5" as="targetPoint" />
          </mxGeometry>
        </mxCell>
        <mxCell id="VLp49_EFWwgWr8ZocLG2-130" value="" style="endArrow=none;html=1;rounded=0;entryX=0;entryY=0.5;entryDx=0;entryDy=0;" edge="1" parent="1" target="VLp49_EFWwgWr8ZocLG2-107">
          <mxGeometry width="50" height="50" relative="1" as="geometry">
            <mxPoint x="160" y="424.5" as="sourcePoint" />
            <mxPoint x="210" y="374.5" as="targetPoint" />
          </mxGeometry>
        </mxCell>
        <mxCell id="VLp49_EFWwgWr8ZocLG2-161" style="edgeStyle=orthogonalEdgeStyle;rounded=0;orthogonalLoop=1;jettySize=auto;html=1;exitX=0.5;exitY=1;exitDx=0;exitDy=0;shape=link;" edge="1" parent="1" source="VLp49_EFWwgWr8ZocLG2-133" target="VLp49_EFWwgWr8ZocLG2-160">
          <mxGeometry relative="1" as="geometry" />
        </mxCell>
        <mxCell id="VLp49_EFWwgWr8ZocLG2-133" value="ITEM_ORDER" style="rounded=0;whiteSpace=wrap;html=1;" vertex="1" parent="1">
          <mxGeometry x="593" y="610" width="160" height="60" as="geometry" />
        </mxCell>
        <mxCell id="VLp49_EFWwgWr8ZocLG2-136" style="edgeStyle=orthogonalEdgeStyle;rounded=0;orthogonalLoop=1;jettySize=auto;html=1;exitX=0.5;exitY=1;exitDx=0;exitDy=0;entryX=0.5;entryY=0;entryDx=0;entryDy=0;shape=link;" edge="1" parent="1" source="VLp49_EFWwgWr8ZocLG2-134" target="VLp49_EFWwgWr8ZocLG2-133">
          <mxGeometry relative="1" as="geometry" />
        </mxCell>
        <mxCell id="VLp49_EFWwgWr8ZocLG2-134" value="implies" style="rhombus;whiteSpace=wrap;html=1;" vertex="1" parent="1">
          <mxGeometry x="593" y="469.5" width="160" height="70" as="geometry" />
        </mxCell>
        <mxCell id="VLp49_EFWwgWr8ZocLG2-135" style="edgeStyle=orthogonalEdgeStyle;rounded=0;orthogonalLoop=1;jettySize=auto;html=1;exitX=0.5;exitY=0;exitDx=0;exitDy=0;shape=link;" edge="1" parent="1" source="VLp49_EFWwgWr8ZocLG2-134">
          <mxGeometry relative="1" as="geometry">
            <mxPoint x="672" y="340" as="targetPoint" />
          </mxGeometry>
        </mxCell>
        <mxCell id="VLp49_EFWwgWr8ZocLG2-138" value="status" style="ellipse;whiteSpace=wrap;html=1;" vertex="1" parent="1">
          <mxGeometry x="394.00000000000006" y="809.9999999999999" width="90" height="40" as="geometry" />
        </mxCell>
        <mxCell id="VLp49_EFWwgWr8ZocLG2-139" value="idOrder" style="ellipse;whiteSpace=wrap;html=1;" vertex="1" parent="1">
          <mxGeometry x="450" y="769.9999999999999" width="90" height="40" as="geometry" />
        </mxCell>
        <mxCell id="VLp49_EFWwgWr8ZocLG2-140" value="total_amount" style="ellipse;whiteSpace=wrap;html=1;" vertex="1" parent="1">
          <mxGeometry x="394" y="864.9999999999999" width="90" height="40" as="geometry" />
        </mxCell>
        <mxCell id="VLp49_EFWwgWr8ZocLG2-141" value="created_at" style="ellipse;whiteSpace=wrap;html=1;" vertex="1" parent="1">
          <mxGeometry x="414" y="925" width="90" height="40" as="geometry" />
        </mxCell>
        <mxCell id="VLp49_EFWwgWr8ZocLG2-147" value="" style="shape=stencil(lVjLctswDPwaXzEkwec5Tf8jM3FqT1074zh9/H3BeqSKgLxObrLMFQACWCy54Ye33dPrdhPc2+V8+r79tX++7Db8ZRPC/rjbnvcXedrw44YfXk7n7bfz6f34fP39+tRX9qcfp5/9C7+vOE+5dVBwf64vHHn378XX6/LD/rhYHomDWu7A8jL9Oy0PFPn28kZ5XJ6oxdvLvXxtXC9vagKAOH1v9sdN8a8DCgUeAZlcAAAJIQ8AdlSAhcDkRwscyAML4kAYY2BPwQOAuJS0SwyywOLSWBNhjmodUMjXzwCimzZx4VIDuxSZwmhBnHQg6JipqjwkigCQJE3KpQoznSIFZaFNqVwHFEpBA7jcBmRHyWuAQwCeencRQwD9kJNxqRBXAKi6oTlTAUEXZyzkqaXWAZJpY8EBEijZBD13yDqgahIQAAMSq55KMgBQSzVOHbwoPkQztVAxPZ2AhSbbWsaOm7lwHcBUxmoVLsygNFqhpgABToZWKY/V6pkqqNbWNM0IeXqQOAFkxd5SrYBmBNBMeSNe8s7p+o5SLaAhxITiGelaxAICSCPfZ/ESA9wIKHeirhTHqKWA76Ra1UYNxBigZlbBTNYypZG+pc1RUwtATZQcIRu3pMs1MaQ+C4geaofu0thy0qMOJU6CHi2I2GqoqYtmMi8zC2Xa0Ib0KKNtrcRNAyoub6eauuA8ND2zumTETV0VuUY45NZ6NE3VcpMGxnJNGbOrEXE539umMEZdEtRknSxHl6qb6PMmHY8NIT2aUPV9GhA1zwgAVp8nP2auZthBtWoLMpUc2FY7RwXQgEt2UgsAMZnVAh0ALFi1IYAIGsLqGQGgTFvFdMeC1WQtwIliVZ8AAlJ9RldK7pGYtsq1CxYggKw2FkBAAKO+uwWkvo2+lxgyICZ7gpAOQbrSnlFkAqC5a09BnRYA9dlz1oIMP3iU62SIjqPmsNi5DdRGP456HUQALgXWI0W2CQFEFaoDb68+kGo/H0kWxISEpUhhVvTdpmpZB3gtLIuIB3ixoa5Neg8Cj6T2Rocy/r65lkmzuF4PQN/6yHoH16vSThX2gpzm1UVOghvqtFRK4iGoupkcZgmQIc87TWC99wDNG4nRGwl+X99z4UOr8efO0cfE23UbXK/2c+bXj6VLJg7YfVMNDk7lT14x3l0uD/9vM1/2h8P1MnT5v779lFfXm1N+/As=);lineShape=1;strokeColor=light-dark(transparent,#FF0200);" vertex="1" parent="1">
          <mxGeometry x="472.55737102053945" y="798.1423848494652" width="40.961725500700595" height="2.365303306218266" as="geometry" />
        </mxCell>
        <mxCell id="VLp49_EFWwgWr8ZocLG2-148" value="" style="endArrow=none;html=1;rounded=0;entryX=0;entryY=0.5;entryDx=0;entryDy=0;" edge="1" parent="1" target="VLp49_EFWwgWr8ZocLG2-81">
          <mxGeometry width="50" height="50" relative="1" as="geometry">
            <mxPoint x="1135" y="419.5" as="sourcePoint" />
            <mxPoint x="1185" y="369.5" as="targetPoint" />
          </mxGeometry>
        </mxCell>
        <mxCell id="VLp49_EFWwgWr8ZocLG2-149" value="quantity_available" style="ellipse;whiteSpace=wrap;html=1;" vertex="1" parent="1">
          <mxGeometry x="793" y="509.5" width="100" height="50" as="geometry" />
        </mxCell>
        <mxCell id="VLp49_EFWwgWr8ZocLG2-150" value="" style="endArrow=none;html=1;rounded=0;entryX=0.5;entryY=1;entryDx=0;entryDy=0;exitX=0.5;exitY=0;exitDx=0;exitDy=0;" edge="1" parent="1" source="VLp49_EFWwgWr8ZocLG2-149" target="VLp49_EFWwgWr8ZocLG2-80">
          <mxGeometry width="50" height="50" relative="1" as="geometry">
            <mxPoint x="836.77" y="499.5" as="sourcePoint" />
            <mxPoint x="886.77" y="449.5" as="targetPoint" />
          </mxGeometry>
        </mxCell>
        <mxCell id="VLp49_EFWwgWr8ZocLG2-163" style="edgeStyle=orthogonalEdgeStyle;rounded=0;orthogonalLoop=1;jettySize=auto;html=1;exitX=1;exitY=0.5;exitDx=0;exitDy=0;entryX=0;entryY=0.5;entryDx=0;entryDy=0;shape=link;" edge="1" parent="1" source="VLp49_EFWwgWr8ZocLG2-151" target="VLp49_EFWwgWr8ZocLG2-117">
          <mxGeometry relative="1" as="geometry" />
        </mxCell>
        <mxCell id="VLp49_EFWwgWr8ZocLG2-151" value="belongs to" style="rhombus;whiteSpace=wrap;html=1;" vertex="1" parent="1">
          <mxGeometry x="838.09" y="870" width="160" height="70" as="geometry" />
        </mxCell>
        <mxCell id="VLp49_EFWwgWr8ZocLG2-155" style="edgeStyle=orthogonalEdgeStyle;rounded=0;orthogonalLoop=1;jettySize=auto;html=1;exitX=1;exitY=0.5;exitDx=0;exitDy=0;entryX=0;entryY=0.5;entryDx=0;entryDy=0;shape=link;" edge="1" parent="1" source="VLp49_EFWwgWr8ZocLG2-154" target="VLp49_EFWwgWr8ZocLG2-151">
          <mxGeometry relative="1" as="geometry" />
        </mxCell>
        <mxCell id="VLp49_EFWwgWr8ZocLG2-154" value="ORDER" style="rounded=0;whiteSpace=wrap;html=1;" vertex="1" parent="1">
          <mxGeometry x="579.57" y="867.32" width="160" height="60" as="geometry" />
        </mxCell>
        <mxCell id="VLp49_EFWwgWr8ZocLG2-156" value="" style="endArrow=none;html=1;rounded=0;entryX=0;entryY=0.5;entryDx=0;entryDy=0;exitX=1;exitY=0.5;exitDx=0;exitDy=0;" edge="1" parent="1" source="VLp49_EFWwgWr8ZocLG2-141" target="VLp49_EFWwgWr8ZocLG2-154">
          <mxGeometry width="50" height="50" relative="1" as="geometry">
            <mxPoint x="529.57" y="965" as="sourcePoint" />
            <mxPoint x="579.57" y="915" as="targetPoint" />
          </mxGeometry>
        </mxCell>
        <mxCell id="VLp49_EFWwgWr8ZocLG2-157" value="" style="endArrow=none;html=1;rounded=0;entryX=0;entryY=0.5;entryDx=0;entryDy=0;exitX=1;exitY=0.5;exitDx=0;exitDy=0;" edge="1" parent="1" source="VLp49_EFWwgWr8ZocLG2-140" target="VLp49_EFWwgWr8ZocLG2-154">
          <mxGeometry width="50" height="50" relative="1" as="geometry">
            <mxPoint x="496.0000000000001" y="922.3199999999999" as="sourcePoint" />
            <mxPoint x="546.0000000000001" y="872.3199999999999" as="targetPoint" />
          </mxGeometry>
        </mxCell>
        <mxCell id="VLp49_EFWwgWr8ZocLG2-158" value="" style="endArrow=none;html=1;rounded=0;entryX=0;entryY=0.5;entryDx=0;entryDy=0;exitX=1;exitY=0.5;exitDx=0;exitDy=0;" edge="1" parent="1" source="VLp49_EFWwgWr8ZocLG2-138" target="VLp49_EFWwgWr8ZocLG2-154">
          <mxGeometry width="50" height="50" relative="1" as="geometry">
            <mxPoint x="490.0000000000001" y="860" as="sourcePoint" />
            <mxPoint x="540.0000000000001" y="810" as="targetPoint" />
          </mxGeometry>
        </mxCell>
        <mxCell id="VLp49_EFWwgWr8ZocLG2-159" value="" style="endArrow=none;html=1;rounded=0;entryX=0;entryY=0.5;entryDx=0;entryDy=0;" edge="1" parent="1" target="VLp49_EFWwgWr8ZocLG2-154">
          <mxGeometry width="50" height="50" relative="1" as="geometry">
            <mxPoint x="529.57" y="804.5" as="sourcePoint" />
            <mxPoint x="579.57" y="754.5" as="targetPoint" />
          </mxGeometry>
        </mxCell>
        <mxCell id="VLp49_EFWwgWr8ZocLG2-160" value="belongs to" style="rhombus;whiteSpace=wrap;html=1;" vertex="1" parent="1">
          <mxGeometry x="590" y="720" width="160" height="70" as="geometry" />
        </mxCell>
        <mxCell id="VLp49_EFWwgWr8ZocLG2-162" style="edgeStyle=orthogonalEdgeStyle;rounded=0;orthogonalLoop=1;jettySize=auto;html=1;exitX=0.5;exitY=1;exitDx=0;exitDy=0;entryX=0.565;entryY=-0.017;entryDx=0;entryDy=0;entryPerimeter=0;shape=link;" edge="1" parent="1" source="VLp49_EFWwgWr8ZocLG2-160" target="VLp49_EFWwgWr8ZocLG2-154">
          <mxGeometry relative="1" as="geometry" />
        </mxCell>
        <mxCell id="VLp49_EFWwgWr8ZocLG2-166" value="idItem_order" style="ellipse;whiteSpace=wrap;html=1;" vertex="1" parent="1">
          <mxGeometry x="472.56000000000006" y="550" width="90" height="40" as="geometry" />
        </mxCell>
        <mxCell id="VLp49_EFWwgWr8ZocLG2-167" value="original_price" style="ellipse;whiteSpace=wrap;html=1;" vertex="1" parent="1">
          <mxGeometry x="430" y="590" width="90" height="40" as="geometry" />
        </mxCell>
        <mxCell id="VLp49_EFWwgWr8ZocLG2-168" value="quantity" style="ellipse;whiteSpace=wrap;html=1;" vertex="1" parent="1">
          <mxGeometry x="472.56" y="680" width="90" height="40" as="geometry" />
        </mxCell>
        <mxCell id="VLp49_EFWwgWr8ZocLG2-169" value="" style="endArrow=none;html=1;rounded=0;entryX=0;entryY=0.5;entryDx=0;entryDy=0;exitX=1;exitY=0;exitDx=0;exitDy=0;" edge="1" parent="1" source="VLp49_EFWwgWr8ZocLG2-168" target="VLp49_EFWwgWr8ZocLG2-133">
          <mxGeometry width="50" height="50" relative="1" as="geometry">
            <mxPoint x="543" y="680" as="sourcePoint" />
            <mxPoint x="593" y="630" as="targetPoint" />
          </mxGeometry>
        </mxCell>
        <mxCell id="VLp49_EFWwgWr8ZocLG2-170" value="" style="endArrow=none;html=1;rounded=0;entryX=0;entryY=0.5;entryDx=0;entryDy=0;exitX=1.014;exitY=0.686;exitDx=0;exitDy=0;exitPerimeter=0;" edge="1" parent="1" source="VLp49_EFWwgWr8ZocLG2-167" target="VLp49_EFWwgWr8ZocLG2-133">
          <mxGeometry width="50" height="50" relative="1" as="geometry">
            <mxPoint x="513.52" y="630" as="sourcePoint" />
            <mxPoint x="563.52" y="580" as="targetPoint" />
          </mxGeometry>
        </mxCell>
        <mxCell id="VLp49_EFWwgWr8ZocLG2-171" value="" style="endArrow=none;html=1;rounded=0;entryX=0;entryY=0.5;entryDx=0;entryDy=0;exitX=1;exitY=1;exitDx=0;exitDy=0;" edge="1" parent="1" source="VLp49_EFWwgWr8ZocLG2-166" target="VLp49_EFWwgWr8ZocLG2-133">
          <mxGeometry width="50" height="50" relative="1" as="geometry">
            <mxPoint x="550" y="530" as="sourcePoint" />
            <mxPoint x="600" y="480" as="targetPoint" />
          </mxGeometry>
        </mxCell>
        <mxCell id="VLp49_EFWwgWr8ZocLG2-173" value="email" style="ellipse;whiteSpace=wrap;html=1;" vertex="1" parent="1">
          <mxGeometry x="1332.34" y="800.51" width="90" height="40" as="geometry" />
        </mxCell>
        <mxCell id="VLp49_EFWwgWr8ZocLG2-185" value="PAYMENT" style="rounded=0;whiteSpace=wrap;html=1;" vertex="1" parent="1">
          <mxGeometry x="810" y="1020" width="160" height="60" as="geometry" />
        </mxCell>
        <mxCell id="VLp49_EFWwgWr8ZocLG2-187" value="" style="endArrow=none;html=1;rounded=0;entryX=0;entryY=0.5;entryDx=0;entryDy=0;" edge="1" parent="1" target="VLp49_EFWwgWr8ZocLG2-173">
          <mxGeometry width="50" height="50" relative="1" as="geometry">
            <mxPoint x="1227" y="905" as="sourcePoint" />
            <mxPoint x="1277" y="855" as="targetPoint" />
          </mxGeometry>
        </mxCell>
        <mxCell id="VLp49_EFWwgWr8ZocLG2-188" value="" style="endArrow=none;html=1;rounded=0;entryX=0;entryY=0.5;entryDx=0;entryDy=0;" edge="1" parent="1" target="VLp49_EFWwgWr8ZocLG2-121">
          <mxGeometry width="50" height="50" relative="1" as="geometry">
            <mxPoint x="1227" y="905" as="sourcePoint" />
            <mxPoint x="1277" y="855" as="targetPoint" />
            <Array as="points">
              <mxPoint x="1300" y="890" />
            </Array>
          </mxGeometry>
        </mxCell>
        <mxCell id="VLp49_EFWwgWr8ZocLG2-189" value="" style="endArrow=none;html=1;rounded=0;" edge="1" parent="1" target="VLp49_EFWwgWr8ZocLG2-120">
          <mxGeometry width="50" height="50" relative="1" as="geometry">
            <mxPoint x="1227" y="905" as="sourcePoint" />
            <mxPoint x="1277" y="855" as="targetPoint" />
          </mxGeometry>
        </mxCell>
        <mxCell id="VLp49_EFWwgWr8ZocLG2-190" value="" style="endArrow=none;html=1;rounded=0;" edge="1" parent="1">
          <mxGeometry width="50" height="50" relative="1" as="geometry">
            <mxPoint x="1227" y="905" as="sourcePoint" />
            <mxPoint x="1330" y="970" as="targetPoint" />
          </mxGeometry>
        </mxCell>
        <mxCell id="VLp49_EFWwgWr8ZocLG2-191" value="" style="endArrow=none;html=1;rounded=0;entryX=0.088;entryY=0.152;entryDx=0;entryDy=0;entryPerimeter=0;" edge="1" parent="1" target="VLp49_EFWwgWr8ZocLG2-118">
          <mxGeometry width="50" height="50" relative="1" as="geometry">
            <mxPoint x="1227" y="905" as="sourcePoint" />
            <mxPoint x="1277" y="855" as="targetPoint" />
          </mxGeometry>
        </mxCell>
        <mxCell id="VLp49_EFWwgWr8ZocLG2-195" style="edgeStyle=orthogonalEdgeStyle;rounded=0;orthogonalLoop=1;jettySize=auto;html=1;exitX=0;exitY=0.5;exitDx=0;exitDy=0;entryX=1;entryY=0.5;entryDx=0;entryDy=0;shape=link;" edge="1" parent="1" source="VLp49_EFWwgWr8ZocLG2-194" target="VLp49_EFWwgWr8ZocLG2-185">
          <mxGeometry relative="1" as="geometry" />
        </mxCell>
        <mxCell id="VLp49_EFWwgWr8ZocLG2-196" style="edgeStyle=orthogonalEdgeStyle;rounded=0;orthogonalLoop=1;jettySize=auto;html=1;exitX=0.5;exitY=0;exitDx=0;exitDy=0;shape=link;" edge="1" parent="1" source="VLp49_EFWwgWr8ZocLG2-194">
          <mxGeometry relative="1" as="geometry">
            <mxPoint x="1146.5" y="940" as="targetPoint" />
          </mxGeometry>
        </mxCell>
        <mxCell id="VLp49_EFWwgWr8ZocLG2-194" value="by" style="rhombus;whiteSpace=wrap;html=1;" vertex="1" parent="1">
          <mxGeometry x="1067" y="1015" width="160" height="70" as="geometry" />
        </mxCell>
        <mxCell id="VLp49_EFWwgWr8ZocLG2-197" value="phone_number" style="ellipse;whiteSpace=wrap;html=1;" vertex="1" parent="1">
          <mxGeometry x="1287.9" y="750" width="90" height="40" as="geometry" />
        </mxCell>
        <mxCell id="VLp49_EFWwgWr8ZocLG2-198" value="" style="endArrow=none;html=1;rounded=0;entryX=0;entryY=1;entryDx=0;entryDy=0;" edge="1" parent="1" target="VLp49_EFWwgWr8ZocLG2-197">
          <mxGeometry width="50" height="50" relative="1" as="geometry">
            <mxPoint x="1227" y="900" as="sourcePoint" />
            <mxPoint x="1277" y="850" as="targetPoint" />
          </mxGeometry>
        </mxCell>
        <mxCell id="VLp49_EFWwgWr8ZocLG2-205" value="payment_date" style="ellipse;whiteSpace=wrap;html=1;" vertex="1" parent="1">
          <mxGeometry x="703" y="1089" width="90" height="40" as="geometry" />
        </mxCell>
        <mxCell id="VLp49_EFWwgWr8ZocLG2-206" value="payment_method" style="ellipse;whiteSpace=wrap;html=1;" vertex="1" parent="1">
          <mxGeometry x="778" y="1120" width="90" height="40" as="geometry" />
        </mxCell>
        <mxCell id="VLp49_EFWwgWr8ZocLG2-207" value="total_amount" style="ellipse;whiteSpace=wrap;html=1;" vertex="1" parent="1">
          <mxGeometry x="885" y="1129" width="90" height="40" as="geometry" />
        </mxCell>
        <mxCell id="VLp49_EFWwgWr8ZocLG2-208" value="" style="endArrow=none;html=1;rounded=0;entryX=0.438;entryY=1;entryDx=0;entryDy=0;entryPerimeter=0;exitX=1;exitY=0.5;exitDx=0;exitDy=0;" edge="1" parent="1" source="VLp49_EFWwgWr8ZocLG2-205" target="VLp49_EFWwgWr8ZocLG2-185">
          <mxGeometry width="50" height="50" relative="1" as="geometry">
            <mxPoint x="813" y="1120" as="sourcePoint" />
            <mxPoint x="863" y="1070" as="targetPoint" />
          </mxGeometry>
        </mxCell>
        <mxCell id="VLp49_EFWwgWr8ZocLG2-209" value="" style="endArrow=none;html=1;rounded=0;entryX=0.458;entryY=0.95;entryDx=0;entryDy=0;entryPerimeter=0;" edge="1" parent="1" source="VLp49_EFWwgWr8ZocLG2-206" target="VLp49_EFWwgWr8ZocLG2-185">
          <mxGeometry width="50" height="50" relative="1" as="geometry">
            <mxPoint x="893.09" y="1120" as="sourcePoint" />
            <mxPoint x="943.09" y="1070" as="targetPoint" />
          </mxGeometry>
        </mxCell>
        <mxCell id="VLp49_EFWwgWr8ZocLG2-210" value="idPayment" style="ellipse;whiteSpace=wrap;html=1;" vertex="1" parent="1">
          <mxGeometry x="975" y="1089" width="90" height="40" as="geometry" />
        </mxCell>
        <mxCell id="VLp49_EFWwgWr8ZocLG2-211" value="" style="endArrow=none;html=1;rounded=0;exitX=0.5;exitY=0;exitDx=0;exitDy=0;" edge="1" parent="1" source="VLp49_EFWwgWr8ZocLG2-207">
          <mxGeometry width="50" height="50" relative="1" as="geometry">
            <mxPoint x="833" y="1130" as="sourcePoint" />
            <mxPoint x="883" y="1080" as="targetPoint" />
          </mxGeometry>
        </mxCell>
        <mxCell id="VLp49_EFWwgWr8ZocLG2-212" value="" style="endArrow=none;html=1;rounded=0;exitX=0.056;exitY=0.275;exitDx=0;exitDy=0;exitPerimeter=0;" edge="1" parent="1" source="VLp49_EFWwgWr8ZocLG2-210">
          <mxGeometry width="50" height="50" relative="1" as="geometry">
            <mxPoint x="935" y="1129" as="sourcePoint" />
            <mxPoint x="888" y="1080" as="targetPoint" />
          </mxGeometry>
        </mxCell>
        <mxCell id="VLp49_EFWwgWr8ZocLG2-213" value="" style="shape=stencil(rVjJbhsxDP0aXwlql85p+h8B4jRG0zhw0u3vS9XVxKRmnhGgN0fhG4rL46JduHl9vHvZ7zy/vp2OX/c/D/dvj7vwaef94flxfzq8ya9duN2Fm4fjaf/ldPz+fH/+++WuS/Zf344/+hd+nXFMJXaQ59/jwJW/B5/P4k+H5wtxT74o8UgubYtHYi3eKPpt8Uw+K3GXKLVt+UqtKXm5feZteeeJgwZ4qgEAEgWjIVCtAFApJw2I4xPrDnUUmwVk4FK5QHMWUJCGRDVbQIoAUFY0JOClwCMJLm0AXgqeSp1sQACxYbrSP6vWAY28uVImRpkaJhsKFQcAZdLQKIErJUdeGx2W2K8DErHmpvgtAPok4YO+UojjZJ1vgVhfKTqqgEC5WBsSUwSA4ijpwKU2Ks46QBinbRCdDmmow+sDUCQdQS5VuZLXADkBGmokr6tG8aOurQMyZaMhUARxqNXyQdyAbGjidV1YSx5+WwdIXM2VCgxc89SyBQSQ3k2y1dsrRVA1Wh78WgDiaMCHVkedW1JjKQvrgEY8ARzS0Gy5z3lYtQUw5T5X8hhQNaAnHwpco2YinSiD5HPMxKwQVQgBKNdV6PyWjEeFSQBF54YksEfp2kb/WOYAB0ndpvIt+ZhR9k2lTwCoKwogZ3slaHSl6KzRaBQQgNflu6ZxsgUwLUgC17DRBtApB3KjX8mQ2o+TTaOn/C4YUHTyCYMCqgLTDJeveKmNInEBQENiTz7NIOkosFY2W2eko4QrBNKR7pUMAFY4Km0sX1FhKBdGcdssNIbU0kdxscw6v6XJwHLcbKcWyv1fQKaqI3fhuM0mpP3aHYdiLfO/jrUkJKN8dZQN4ErnZdtTWoDjdx8GvA1Ew+NG0tNDbZDVfaAxpawMN2yNTGZJEQCaRCWbLSBBG6SpeW109XASlbZpkkk+gQaaPkZqkvbeDozO3nbeVGCr7uO3Tj4ZjtF80gd8zdFYR2Q2VwhtQ8RTXF9SdKRjGgP55hqk4yAnBUS6L1oG4OG0Ma9ysnOgzWxeFgXgPrSOCsADwLzwCgDNuvNK3QFIw7S0d6OBW/uzwGQ0o5ay9I8FwKOzbj5tFAtAO7hz1KoFoEhX66RQKQAFeVp3IzHI1TC9CdSx5Gy8XZkFRb6AXqN4bIVL95H7A7LxyJlFvsDXKLZrpctX7mOo6SK0lwetFnkPqzwPb793WyqAmPOeAV+J2Ba7DIcqtrtbhAzjsdgtwYVDocTK2DoWjg3xaF9JA+hmPHS/i6Op5YNvsFfF5cf7c+/D4enp/Fp8+X/7PCxH56flcPsH);lineShape=1;strokeColor=light-dark(transparent,#FF0200);" vertex="1" parent="1">
          <mxGeometry x="992.1206048347785" y="1115.6816009229672" width="52.32075941433342" height="3.513256136381541" as="geometry" />
        </mxCell>
        <mxCell id="O4ClnFHXs-hYLyj-NA22-2" value="(0,1)" style="text;html=1;align=center;verticalAlign=middle;whiteSpace=wrap;rounded=0;" vertex="1" parent="1">
          <mxGeometry x="384" y="459.5" width="60" height="30" as="geometry" />
        </mxCell>
        <mxCell id="O4ClnFHXs-hYLyj-NA22-3" value="(1,N)" style="text;html=1;align=center;verticalAlign=middle;whiteSpace=wrap;rounded=0;" vertex="1" parent="1">
          <mxGeometry x="593" y="339.5" width="60" height="30" as="geometry" />
        </mxCell>
        <mxCell id="O4ClnFHXs-hYLyj-NA22-4" value="N:1" style="text;html=1;align=center;verticalAlign=middle;whiteSpace=wrap;rounded=0;" vertex="1" parent="1">
          <mxGeometry x="496" y="489.5" width="60" height="30" as="geometry" />
        </mxCell>
        <mxCell id="O4ClnFHXs-hYLyj-NA22-5" value="(1,1)" style="text;html=1;align=center;verticalAlign=middle;whiteSpace=wrap;rounded=0;" vertex="1" parent="1">
          <mxGeometry x="730" y="867.32" width="60" height="30" as="geometry" />
        </mxCell>
        <mxCell id="O4ClnFHXs-hYLyj-NA22-6" value="(0,N)" style="text;html=1;align=center;verticalAlign=middle;whiteSpace=wrap;rounded=0;" vertex="1" parent="1">
          <mxGeometry x="1020" y="870" width="60" height="30" as="geometry" />
        </mxCell>
        <mxCell id="O4ClnFHXs-hYLyj-NA22-7" value="N:1" style="text;html=1;align=center;verticalAlign=middle;whiteSpace=wrap;rounded=0;" vertex="1" parent="1">
          <mxGeometry x="888.09" y="847.32" width="60" height="20" as="geometry" />
        </mxCell>
        <mxCell id="O4ClnFHXs-hYLyj-NA22-10" value="(1,1)" style="text;html=1;align=center;verticalAlign=middle;whiteSpace=wrap;rounded=0;" vertex="1" parent="1">
          <mxGeometry x="1135" y="935" width="60" height="30" as="geometry" />
        </mxCell>
        <mxCell id="O4ClnFHXs-hYLyj-NA22-11" value="(1,N)" style="text;html=1;align=center;verticalAlign=middle;whiteSpace=wrap;rounded=0;" vertex="1" parent="1">
          <mxGeometry x="960" y="1020" width="60" height="30" as="geometry" />
        </mxCell>
        <mxCell id="O4ClnFHXs-hYLyj-NA22-12" value="N:1" style="text;html=1;align=center;verticalAlign=middle;whiteSpace=wrap;rounded=0;" vertex="1" parent="1">
          <mxGeometry x="1120" y="1085" width="60" height="30" as="geometry" />
        </mxCell>
        <mxCell id="O4ClnFHXs-hYLyj-NA22-14" value="(1,N)" style="text;html=1;align=center;verticalAlign=middle;whiteSpace=wrap;rounded=0;" vertex="1" parent="1">
          <mxGeometry x="660" y="339.5" width="60" height="30" as="geometry" />
        </mxCell>
        <mxCell id="O4ClnFHXs-hYLyj-NA22-15" value="(1,M)" style="text;html=1;align=center;verticalAlign=middle;whiteSpace=wrap;rounded=0;" vertex="1" parent="1">
          <mxGeometry x="660" y="585" width="60" height="30" as="geometry" />
        </mxCell>
        <mxCell id="O4ClnFHXs-hYLyj-NA22-16" value="M:N" style="text;html=1;align=center;verticalAlign=middle;resizable=0;points=[];autosize=1;strokeColor=none;fillColor=none;" vertex="1" parent="1">
          <mxGeometry x="665" y="444.5" width="50" height="30" as="geometry" />
        </mxCell>
        <mxCell id="O4ClnFHXs-hYLyj-NA22-17" value="(1,N)" style="text;html=1;align=center;verticalAlign=middle;whiteSpace=wrap;rounded=0;" vertex="1" parent="1">
          <mxGeometry x="665" y="837.32" width="60" height="30" as="geometry" />
        </mxCell>
        <mxCell id="O4ClnFHXs-hYLyj-NA22-18" value="(1,M)" style="text;html=1;align=center;verticalAlign=middle;whiteSpace=wrap;rounded=0;" vertex="1" parent="1">
          <mxGeometry x="665" y="660" width="60" height="30" as="geometry" />
        </mxCell>
        <mxCell id="O4ClnFHXs-hYLyj-NA22-19" value="M:N" style="text;html=1;align=center;verticalAlign=middle;resizable=0;points=[];autosize=1;strokeColor=none;fillColor=none;" vertex="1" parent="1">
          <mxGeometry x="665" y="710" width="50" height="30" as="geometry" />
        </mxCell>
        <mxCell id="O4ClnFHXs-hYLyj-NA22-20" value="name" style="ellipse;whiteSpace=wrap;html=1;" vertex="1" parent="1">
          <mxGeometry x="1270" y="184.5" width="90" height="40" as="geometry" />
        </mxCell>
        <mxCell id="O4ClnFHXs-hYLyj-NA22-21" value="" style="endArrow=none;html=1;rounded=0;entryX=0.032;entryY=0.704;entryDx=0;entryDy=0;entryPerimeter=0;" edge="1" parent="1" target="O4ClnFHXs-hYLyj-NA22-20">
          <mxGeometry width="50" height="50" relative="1" as="geometry">
            <mxPoint x="1200" y="300.95" as="sourcePoint" />
            <mxPoint x="1250" y="250.95" as="targetPoint" />
          </mxGeometry>
        </mxCell>
        <mxCell id="O4ClnFHXs-hYLyj-NA22-22" value="category_image" style="ellipse;whiteSpace=wrap;html=1;" vertex="1" parent="1">
          <mxGeometry x="1269.38" y="339.5" width="90" height="40" as="geometry" />
        </mxCell>
        <mxCell id="O4ClnFHXs-hYLyj-NA22-23" value="" style="endArrow=none;html=1;rounded=0;entryX=0;entryY=0.5;entryDx=0;entryDy=0;" edge="1" parent="1" target="O4ClnFHXs-hYLyj-NA22-22">
          <mxGeometry width="50" height="50" relative="1" as="geometry">
            <mxPoint x="1200" y="299.5" as="sourcePoint" />
            <mxPoint x="1250" y="249.5" as="targetPoint" />
          </mxGeometry>
        </mxCell>
        <mxCell id="O4ClnFHXs-hYLyj-NA22-24" value="" style="shape=stencil(lVnbUhsxDP2avGpsy9dnSv+DGULJlBIm0NvfV27wEkvJWfIWFp+VdTu67IZvXh/vXrab4F7fDvvv29+7+7fHDX/ZhLB7ftwedm/ya8O3G7552B+23w77n8/3x79f7vrJ/uvH/ld/w58jzlNpHRTc3+MDJl//P/h6PP60ez45Lv9N03FfqeTL5yOlOJ2XJ8FdPp/JFX0+gvtUCk2ff7/h2fPeEasLMaUGAIHcrHEIVAsAMBUDCOhKidjNAE8ZSSjksgYwMKr4qEUNcMCqwVFSbnBUAgAE47fF0OcBYiXWAI8kiJX8HHmNKtIhU3UakJGESrlpAFKaHTWrA4glZorF+AE4jhO5oAGVASBTU8EnMoEfuFGczSp2QwkXw3DTAsBmjZHqDGBPDSgdC4XZrBwogwSKjbwBeCAhOapeX4mBWVMYHLEAHPRDijqBug7ArClTUjoUisCsqWpAFE+D4MtOU7GYAVkph2GTBSBcDPyQ43jfAshYQqIWNKAA5stVk3EqlIEfihuhtgDaCMfzgEg8S8gSGuBKRSrQbFaxWwSA6jVrZKYASmhN5koMg69WinN9EM8EQALN64zLS90+D+DhphPAOz2fBxhPiw6oZLWmGw3xAyJjAcSg/YBCQwBZWSnBOi2Aqq7UsNKN2mylHl2o13BulIMF0QahXxQxR59ES8R3UlWxOQoYoKiv4egTgKKN7nzsatXOtAx7xFZ1z9oiFaSDcKWS4Ac/XwLwLKEW8liC6k4kzetVgJKxH8yVOrddpXTOgxc+adaeozjllOMkRxG52tCQHPU4llTwZTw+2PDOZe1KKoFKgO3MuRytsJm2NFCZMmJXQzTC6Cvcp6isBSr4SoosJUfjVXQsOXodf68BTIXoSY2UNjWoP0EAU+Ua7phsHe0SEMBUatEBDQS2F+hKA7633YbYLa30M1H7IQEWEFapilwLNRBLvSdTOjQ4IEuZrbPjTnLqPILHDRYRMtECJYRWbEnJSMJSBE8rBGBXab/DHK7ifLQ4kc42zDpIaUfs2ptt0z3AK5khRagMjhBmDCp+JOEnBy0BoG2LHeUkvNC2xQ6LIoGRBDOOFoZtnx14C5457EgtjkOl3Q7tkubID3YtUPHGyC4epKI4kA92tSGABKxklycVm9WuZwSA5ia7ABIA6gXsikmshBogu8QSAFLarskE4K9axHVCv2rVJ4AEWMMuEyveGNl1ZXXESIJZiEp4o+6kGh5b4eJz7RJwm1kiCO1VcB8/pJ80oaiRdqMQLHuTNHbIF87zHEXRj9y4cN7P9uGy8n4VQxwGf1w6r7bFee39asHn4BZHzqstaITznjNdFexgRLhaKsH+xY1N+HJ7yCpOc7VwAMoW3U3hPsSPq34cRwR05aeV1ePy4+MrzsPu6en4Eej0//qrjzw6fjHi238=);lineShape=1;strokeColor=light-dark(transparent,#FF0200);" vertex="1" parent="1">
          <mxGeometry x="481.3824791301255" y="574.9866267075756" width="71.13013953266965" height="3.5106361489418374" as="geometry" />
        </mxCell>
        <mxCell id="O4ClnFHXs-hYLyj-NA22-25" value="sale_price" style="ellipse;whiteSpace=wrap;html=1;" vertex="1" parent="1">
          <mxGeometry x="430" y="640" width="90" height="40" as="geometry" />
        </mxCell>
        <mxCell id="O4ClnFHXs-hYLyj-NA22-26" value="" style="endArrow=none;html=1;rounded=0;entryX=0;entryY=0.5;entryDx=0;entryDy=0;" edge="1" parent="1" target="VLp49_EFWwgWr8ZocLG2-133">
          <mxGeometry width="50" height="50" relative="1" as="geometry">
            <mxPoint x="520" y="660" as="sourcePoint" />
            <mxPoint x="570" y="610" as="targetPoint" />
          </mxGeometry>
        </mxCell>
      </root>
    </mxGraphModel>
  </diagram>
  <diagram id="3uH2_o5KyYGGFmNlFDgj" name="Physical model">
    <mxGraphModel dx="1300" dy="623" grid="1" gridSize="10" guides="1" tooltips="1" connect="1" arrows="1" fold="1" page="1" pageScale="1" pageWidth="827" pageHeight="1169" math="0" shadow="0">
      <root>
        <mxCell id="0" />
        <mxCell id="1" parent="0" />
        <mxCell id="_Zj1P9fmqI2FFC8TsWDy-1" value="TProduct" style="swimlane;fontStyle=0;childLayout=stackLayout;horizontal=1;startSize=30;horizontalStack=0;resizeParent=1;resizeParentMax=0;resizeLast=0;collapsible=1;marginBottom=0;whiteSpace=wrap;html=1;" vertex="1" parent="1">
          <mxGeometry x="530" y="250" width="140" height="300" as="geometry">
            <mxRectangle x="70" y="70" width="90" height="30" as="alternateBounds" />
          </mxGeometry>
        </mxCell>
        <mxCell id="_Zj1P9fmqI2FFC8TsWDy-2" value="cBrand" style="text;strokeColor=none;fillColor=none;align=left;verticalAlign=middle;spacingLeft=4;spacingRight=4;overflow=hidden;points=[[0,0.5],[1,0.5]];portConstraint=eastwest;rotatable=0;whiteSpace=wrap;html=1;" vertex="1" parent="_Zj1P9fmqI2FFC8TsWDy-1">
          <mxGeometry y="30" width="140" height="30" as="geometry" />
        </mxCell>
        <mxCell id="_Zj1P9fmqI2FFC8TsWDy-3" value="nStock" style="text;strokeColor=none;fillColor=none;align=left;verticalAlign=middle;spacingLeft=4;spacingRight=4;overflow=hidden;points=[[0,0.5],[1,0.5]];portConstraint=eastwest;rotatable=0;whiteSpace=wrap;html=1;" vertex="1" parent="_Zj1P9fmqI2FFC8TsWDy-1">
          <mxGeometry y="60" width="140" height="30" as="geometry" />
        </mxCell>
        <mxCell id="_Zj1P9fmqI2FFC8TsWDy-4" value="nPrice" style="text;strokeColor=none;fillColor=none;align=left;verticalAlign=middle;spacingLeft=4;spacingRight=4;overflow=hidden;points=[[0,0.5],[1,0.5]];portConstraint=eastwest;rotatable=0;whiteSpace=wrap;html=1;" vertex="1" parent="_Zj1P9fmqI2FFC8TsWDy-1">
          <mxGeometry y="90" width="140" height="30" as="geometry" />
        </mxCell>
        <mxCell id="_Zj1P9fmqI2FFC8TsWDy-5" value="nProductID&amp;nbsp; PK" style="text;strokeColor=none;fillColor=none;align=left;verticalAlign=middle;spacingLeft=4;spacingRight=4;overflow=hidden;points=[[0,0.5],[1,0.5]];portConstraint=eastwest;rotatable=0;whiteSpace=wrap;html=1;" vertex="1" parent="_Zj1P9fmqI2FFC8TsWDy-1">
          <mxGeometry y="120" width="140" height="30" as="geometry" />
        </mxCell>
        <mxCell id="_Zj1P9fmqI2FFC8TsWDy-6" value="cName" style="text;strokeColor=none;fillColor=none;align=left;verticalAlign=middle;spacingLeft=4;spacingRight=4;overflow=hidden;points=[[0,0.5],[1,0.5]];portConstraint=eastwest;rotatable=0;whiteSpace=wrap;html=1;" vertex="1" parent="_Zj1P9fmqI2FFC8TsWDy-1">
          <mxGeometry y="150" width="140" height="30" as="geometry" />
        </mxCell>
        <mxCell id="_Zj1P9fmqI2FFC8TsWDy-7" value="cDescription" style="text;strokeColor=none;fillColor=none;align=left;verticalAlign=middle;spacingLeft=4;spacingRight=4;overflow=hidden;points=[[0,0.5],[1,0.5]];portConstraint=eastwest;rotatable=0;whiteSpace=wrap;html=1;" vertex="1" parent="_Zj1P9fmqI2FFC8TsWDy-1">
          <mxGeometry y="180" width="140" height="30" as="geometry" />
        </mxCell>
        <mxCell id="_Zj1P9fmqI2FFC8TsWDy-8" value="dCreatedAt" style="text;strokeColor=none;fillColor=none;align=left;verticalAlign=middle;spacingLeft=4;spacingRight=4;overflow=hidden;points=[[0,0.5],[1,0.5]];portConstraint=eastwest;rotatable=0;whiteSpace=wrap;html=1;" vertex="1" parent="_Zj1P9fmqI2FFC8TsWDy-1">
          <mxGeometry y="210" width="140" height="30" as="geometry" />
        </mxCell>
        <mxCell id="hPiD1e1cplY4AbyPydK2-5" value="nImageID&amp;nbsp; FK" style="text;strokeColor=none;fillColor=none;align=left;verticalAlign=middle;spacingLeft=4;spacingRight=4;overflow=hidden;points=[[0,0.5],[1,0.5]];portConstraint=eastwest;rotatable=0;whiteSpace=wrap;html=1;" vertex="1" parent="_Zj1P9fmqI2FFC8TsWDy-1">
          <mxGeometry y="240" width="140" height="30" as="geometry" />
        </mxCell>
        <mxCell id="hPiD1e1cplY4AbyPydK2-7" value="nGenderID FK" style="text;strokeColor=none;fillColor=none;align=left;verticalAlign=middle;spacingLeft=4;spacingRight=4;overflow=hidden;points=[[0,0.5],[1,0.5]];portConstraint=eastwest;rotatable=0;whiteSpace=wrap;html=1;" vertex="1" parent="_Zj1P9fmqI2FFC8TsWDy-1">
          <mxGeometry y="270" width="140" height="30" as="geometry" />
        </mxCell>
        <mxCell id="_Zj1P9fmqI2FFC8TsWDy-9" value="TCategory" style="swimlane;fontStyle=0;childLayout=stackLayout;horizontal=1;startSize=30;horizontalStack=0;resizeParent=1;resizeParentMax=0;resizeLast=0;collapsible=1;marginBottom=0;whiteSpace=wrap;html=1;" vertex="1" parent="1">
          <mxGeometry x="1010" y="280" width="140" height="150" as="geometry" />
        </mxCell>
        <mxCell id="_Zj1P9fmqI2FFC8TsWDy-27" value="" style="edgeStyle=entityRelationEdgeStyle;fontSize=12;html=1;endArrow=ERoneToMany;rounded=0;entryX=1;entryY=0.5;entryDx=0;entryDy=0;" edge="1" parent="_Zj1P9fmqI2FFC8TsWDy-9" target="_Zj1P9fmqI2FFC8TsWDy-15">
          <mxGeometry width="100" height="100" relative="1" as="geometry">
            <mxPoint x="-20" y="100" as="sourcePoint" />
            <mxPoint x="100" y="-10" as="targetPoint" />
            <Array as="points">
              <mxPoint y="100" />
              <mxPoint x="10" y="100" />
            </Array>
          </mxGeometry>
        </mxCell>
        <mxCell id="_Zj1P9fmqI2FFC8TsWDy-10" value="cName" style="text;strokeColor=none;fillColor=none;align=left;verticalAlign=middle;spacingLeft=4;spacingRight=4;overflow=hidden;points=[[0,0.5],[1,0.5]];portConstraint=eastwest;rotatable=0;whiteSpace=wrap;html=1;" vertex="1" parent="_Zj1P9fmqI2FFC8TsWDy-9">
          <mxGeometry y="30" width="140" height="30" as="geometry" />
        </mxCell>
        <mxCell id="_Zj1P9fmqI2FFC8TsWDy-11" value="nIDCategory&amp;nbsp; PK" style="text;strokeColor=none;fillColor=none;align=left;verticalAlign=middle;spacingLeft=4;spacingRight=4;overflow=hidden;points=[[0,0.5],[1,0.5]];portConstraint=eastwest;rotatable=0;whiteSpace=wrap;html=1;" vertex="1" parent="_Zj1P9fmqI2FFC8TsWDy-9">
          <mxGeometry y="60" width="140" height="30" as="geometry" />
        </mxCell>
        <mxCell id="_Zj1P9fmqI2FFC8TsWDy-12" value="cDescription" style="text;strokeColor=none;fillColor=none;align=left;verticalAlign=middle;spacingLeft=4;spacingRight=4;overflow=hidden;points=[[0,0.5],[1,0.5]];portConstraint=eastwest;rotatable=0;whiteSpace=wrap;html=1;" vertex="1" parent="_Zj1P9fmqI2FFC8TsWDy-9">
          <mxGeometry y="90" width="140" height="30" as="geometry" />
        </mxCell>
        <mxCell id="_Zj1P9fmqI2FFC8TsWDy-13" value="imgCategory_image" style="text;strokeColor=none;fillColor=none;align=left;verticalAlign=middle;spacingLeft=4;spacingRight=4;overflow=hidden;points=[[0,0.5],[1,0.5]];portConstraint=eastwest;rotatable=0;whiteSpace=wrap;html=1;" vertex="1" parent="_Zj1P9fmqI2FFC8TsWDy-9">
          <mxGeometry y="120" width="140" height="30" as="geometry" />
        </mxCell>
        <mxCell id="_Zj1P9fmqI2FFC8TsWDy-14" value="TProduct_Category" style="swimlane;fontStyle=0;childLayout=stackLayout;horizontal=1;startSize=30;horizontalStack=0;resizeParent=1;resizeParentMax=0;resizeLast=0;collapsible=1;marginBottom=0;whiteSpace=wrap;html=1;" vertex="1" parent="1">
          <mxGeometry x="770" y="335" width="140" height="90" as="geometry" />
        </mxCell>
        <mxCell id="_Zj1P9fmqI2FFC8TsWDy-15" value="nProductID&amp;nbsp; PK FK" style="text;strokeColor=none;fillColor=none;align=left;verticalAlign=middle;spacingLeft=4;spacingRight=4;overflow=hidden;points=[[0,0.5],[1,0.5]];portConstraint=eastwest;rotatable=0;whiteSpace=wrap;html=1;" vertex="1" parent="_Zj1P9fmqI2FFC8TsWDy-14">
          <mxGeometry y="30" width="140" height="30" as="geometry" />
        </mxCell>
        <mxCell id="_Zj1P9fmqI2FFC8TsWDy-16" value="nCategoryID PK FK" style="text;strokeColor=none;fillColor=none;align=left;verticalAlign=middle;spacingLeft=4;spacingRight=4;overflow=hidden;points=[[0,0.5],[1,0.5]];portConstraint=eastwest;rotatable=0;whiteSpace=wrap;html=1;" vertex="1" parent="_Zj1P9fmqI2FFC8TsWDy-14">
          <mxGeometry y="60" width="140" height="30" as="geometry" />
        </mxCell>
        <mxCell id="_Zj1P9fmqI2FFC8TsWDy-26" value="" style="edgeStyle=entityRelationEdgeStyle;fontSize=12;html=1;endArrow=ERoneToMany;rounded=0;entryX=0;entryY=0.5;entryDx=0;entryDy=0;exitX=1;exitY=0.5;exitDx=0;exitDy=0;" edge="1" parent="1" source="_Zj1P9fmqI2FFC8TsWDy-5" target="_Zj1P9fmqI2FFC8TsWDy-15">
          <mxGeometry width="100" height="100" relative="1" as="geometry">
            <mxPoint x="680" y="390" as="sourcePoint" />
            <mxPoint x="780" y="290" as="targetPoint" />
          </mxGeometry>
        </mxCell>
        <mxCell id="_Zj1P9fmqI2FFC8TsWDy-28" value="TImages" style="swimlane;fontStyle=0;childLayout=stackLayout;horizontal=1;startSize=30;horizontalStack=0;resizeParent=1;resizeParentMax=0;resizeLast=0;collapsible=1;marginBottom=0;whiteSpace=wrap;html=1;" vertex="1" parent="1">
          <mxGeometry x="890" y="470" width="140" height="90" as="geometry" />
        </mxCell>
        <mxCell id="_Zj1P9fmqI2FFC8TsWDy-29" value="imgFilename_image" style="text;strokeColor=none;fillColor=none;align=left;verticalAlign=middle;spacingLeft=4;spacingRight=4;overflow=hidden;points=[[0,0.5],[1,0.5]];portConstraint=eastwest;rotatable=0;whiteSpace=wrap;html=1;" vertex="1" parent="_Zj1P9fmqI2FFC8TsWDy-28">
          <mxGeometry y="30" width="140" height="30" as="geometry" />
        </mxCell>
        <mxCell id="_Zj1P9fmqI2FFC8TsWDy-30" value="nImageID&amp;nbsp; PK" style="text;strokeColor=none;fillColor=none;align=left;verticalAlign=middle;spacingLeft=4;spacingRight=4;overflow=hidden;points=[[0,0.5],[1,0.5]];portConstraint=eastwest;rotatable=0;whiteSpace=wrap;html=1;" vertex="1" parent="_Zj1P9fmqI2FFC8TsWDy-28">
          <mxGeometry y="60" width="140" height="30" as="geometry" />
        </mxCell>
        <mxCell id="_Zj1P9fmqI2FFC8TsWDy-36" value="TSize" style="swimlane;fontStyle=0;childLayout=stackLayout;horizontal=1;startSize=26;horizontalStack=0;resizeParent=1;resizeParentMax=0;resizeLast=0;collapsible=1;marginBottom=0;align=center;fontSize=14;" vertex="1" parent="1">
          <mxGeometry x="40" y="320" width="160" height="86" as="geometry" />
        </mxCell>
        <mxCell id="_Zj1P9fmqI2FFC8TsWDy-37" value="cName" style="text;strokeColor=none;fillColor=none;spacingLeft=4;spacingRight=4;overflow=hidden;rotatable=0;points=[[0,0.5],[1,0.5]];portConstraint=eastwest;fontSize=12;whiteSpace=wrap;html=1;" vertex="1" parent="_Zj1P9fmqI2FFC8TsWDy-36">
          <mxGeometry y="26" width="160" height="30" as="geometry" />
        </mxCell>
        <mxCell id="_Zj1P9fmqI2FFC8TsWDy-38" value="nSizeID&amp;nbsp; PK" style="text;strokeColor=none;fillColor=none;spacingLeft=4;spacingRight=4;overflow=hidden;rotatable=0;points=[[0,0.5],[1,0.5]];portConstraint=eastwest;fontSize=12;whiteSpace=wrap;html=1;" vertex="1" parent="_Zj1P9fmqI2FFC8TsWDy-36">
          <mxGeometry y="56" width="160" height="30" as="geometry" />
        </mxCell>
        <mxCell id="_Zj1P9fmqI2FFC8TsWDy-40" value="TSize_Product" style="swimlane;fontStyle=0;childLayout=stackLayout;horizontal=1;startSize=26;horizontalStack=0;resizeParent=1;resizeParentMax=0;resizeLast=0;collapsible=1;marginBottom=0;align=center;fontSize=14;" vertex="1" parent="1">
          <mxGeometry x="280" y="309" width="160" height="116" as="geometry" />
        </mxCell>
        <mxCell id="_Zj1P9fmqI2FFC8TsWDy-41" value="nSizeID&amp;nbsp; PK&amp;nbsp; FK" style="text;strokeColor=none;fillColor=none;spacingLeft=4;spacingRight=4;overflow=hidden;rotatable=0;points=[[0,0.5],[1,0.5]];portConstraint=eastwest;fontSize=12;whiteSpace=wrap;html=1;" vertex="1" parent="_Zj1P9fmqI2FFC8TsWDy-40">
          <mxGeometry y="26" width="160" height="30" as="geometry" />
        </mxCell>
        <mxCell id="_Zj1P9fmqI2FFC8TsWDy-42" value="nProductID&amp;nbsp; PK&amp;nbsp; FK" style="text;strokeColor=none;fillColor=none;spacingLeft=4;spacingRight=4;overflow=hidden;rotatable=0;points=[[0,0.5],[1,0.5]];portConstraint=eastwest;fontSize=12;whiteSpace=wrap;html=1;" vertex="1" parent="_Zj1P9fmqI2FFC8TsWDy-40">
          <mxGeometry y="56" width="160" height="30" as="geometry" />
        </mxCell>
        <mxCell id="_Zj1P9fmqI2FFC8TsWDy-43" value="nQuantity_available" style="text;strokeColor=none;fillColor=none;spacingLeft=4;spacingRight=4;overflow=hidden;rotatable=0;points=[[0,0.5],[1,0.5]];portConstraint=eastwest;fontSize=12;whiteSpace=wrap;html=1;" vertex="1" parent="_Zj1P9fmqI2FFC8TsWDy-40">
          <mxGeometry y="86" width="160" height="30" as="geometry" />
        </mxCell>
        <mxCell id="_Zj1P9fmqI2FFC8TsWDy-44" value="" style="edgeStyle=entityRelationEdgeStyle;fontSize=12;html=1;endArrow=ERzeroToMany;endFill=1;rounded=0;" edge="1" parent="1">
          <mxGeometry width="100" height="100" relative="1" as="geometry">
            <mxPoint x="200" y="370" as="sourcePoint" />
            <mxPoint x="280" y="370" as="targetPoint" />
          </mxGeometry>
        </mxCell>
        <mxCell id="_Zj1P9fmqI2FFC8TsWDy-48" value="" style="edgeStyle=entityRelationEdgeStyle;fontSize=12;html=1;endArrow=ERzeroToMany;endFill=1;rounded=0;exitX=0;exitY=0.5;exitDx=0;exitDy=0;" edge="1" parent="1" source="_Zj1P9fmqI2FFC8TsWDy-5" target="_Zj1P9fmqI2FFC8TsWDy-42">
          <mxGeometry width="100" height="100" relative="1" as="geometry">
            <mxPoint x="480" y="400" as="sourcePoint" />
            <mxPoint x="580" y="300" as="targetPoint" />
          </mxGeometry>
        </mxCell>
        <mxCell id="hPiD1e1cplY4AbyPydK2-1" value="TGender" style="swimlane;fontStyle=0;childLayout=stackLayout;horizontal=1;startSize=26;horizontalStack=0;resizeParent=1;resizeParentMax=0;resizeLast=0;collapsible=1;marginBottom=0;align=center;fontSize=14;" vertex="1" parent="1">
          <mxGeometry x="40" y="434" width="160" height="86" as="geometry" />
        </mxCell>
        <mxCell id="hPiD1e1cplY4AbyPydK2-2" value="nGenderID&amp;nbsp; PK" style="text;strokeColor=none;fillColor=none;spacingLeft=4;spacingRight=4;overflow=hidden;rotatable=0;points=[[0,0.5],[1,0.5]];portConstraint=eastwest;fontSize=12;whiteSpace=wrap;html=1;" vertex="1" parent="hPiD1e1cplY4AbyPydK2-1">
          <mxGeometry y="26" width="160" height="30" as="geometry" />
        </mxCell>
        <mxCell id="hPiD1e1cplY4AbyPydK2-3" value="cName" style="text;strokeColor=none;fillColor=none;spacingLeft=4;spacingRight=4;overflow=hidden;rotatable=0;points=[[0,0.5],[1,0.5]];portConstraint=eastwest;fontSize=12;whiteSpace=wrap;html=1;" vertex="1" parent="hPiD1e1cplY4AbyPydK2-1">
          <mxGeometry y="56" width="160" height="30" as="geometry" />
        </mxCell>
        <mxCell id="hPiD1e1cplY4AbyPydK2-6" value="" style="edgeStyle=entityRelationEdgeStyle;fontSize=12;html=1;endArrow=ERoneToMany;startArrow=ERzeroToOne;rounded=0;entryX=0;entryY=0.5;entryDx=0;entryDy=0;" edge="1" parent="1" target="hPiD1e1cplY4AbyPydK2-7">
          <mxGeometry width="100" height="100" relative="1" as="geometry">
            <mxPoint x="200" y="480" as="sourcePoint" />
            <mxPoint x="300" y="380" as="targetPoint" />
          </mxGeometry>
        </mxCell>
        <mxCell id="hPiD1e1cplY4AbyPydK2-9" value="" style="edgeStyle=entityRelationEdgeStyle;fontSize=12;html=1;endArrow=ERzeroToMany;endFill=1;rounded=0;entryX=1.018;entryY=-0.04;entryDx=0;entryDy=0;entryPerimeter=0;exitX=0;exitY=0.5;exitDx=0;exitDy=0;" edge="1" parent="1" source="_Zj1P9fmqI2FFC8TsWDy-30" target="hPiD1e1cplY4AbyPydK2-5">
          <mxGeometry width="100" height="100" relative="1" as="geometry">
            <mxPoint x="900" y="489" as="sourcePoint" />
            <mxPoint x="1051" y="400" as="targetPoint" />
          </mxGeometry>
        </mxCell>
        <mxCell id="hPiD1e1cplY4AbyPydK2-11" value="Torder_items" style="swimlane;fontStyle=0;childLayout=stackLayout;horizontal=1;startSize=26;horizontalStack=0;resizeParent=1;resizeParentMax=0;resizeLast=0;collapsible=1;marginBottom=0;align=center;fontSize=14;" vertex="1" parent="1">
          <mxGeometry x="810" y="660" width="160" height="176" as="geometry" />
        </mxCell>
        <mxCell id="hPiD1e1cplY4AbyPydK2-12" value="nItem_orderID&amp;nbsp; PK" style="text;strokeColor=none;fillColor=none;spacingLeft=4;spacingRight=4;overflow=hidden;rotatable=0;points=[[0,0.5],[1,0.5]];portConstraint=eastwest;fontSize=12;whiteSpace=wrap;html=1;" vertex="1" parent="hPiD1e1cplY4AbyPydK2-11">
          <mxGeometry y="26" width="160" height="30" as="geometry" />
        </mxCell>
        <mxCell id="hPiD1e1cplY4AbyPydK2-13" value="nOriginalPrice" style="text;strokeColor=none;fillColor=none;spacingLeft=4;spacingRight=4;overflow=hidden;rotatable=0;points=[[0,0.5],[1,0.5]];portConstraint=eastwest;fontSize=12;whiteSpace=wrap;html=1;" vertex="1" parent="hPiD1e1cplY4AbyPydK2-11">
          <mxGeometry y="56" width="160" height="30" as="geometry" />
        </mxCell>
        <mxCell id="hPiD1e1cplY4AbyPydK2-15" value="nQuantity" style="text;strokeColor=none;fillColor=none;spacingLeft=4;spacingRight=4;overflow=hidden;rotatable=0;points=[[0,0.5],[1,0.5]];portConstraint=eastwest;fontSize=12;whiteSpace=wrap;html=1;" vertex="1" parent="hPiD1e1cplY4AbyPydK2-11">
          <mxGeometry y="86" width="160" height="30" as="geometry" />
        </mxCell>
        <mxCell id="hPiD1e1cplY4AbyPydK2-14" value="nSalePrice" style="text;strokeColor=none;fillColor=none;spacingLeft=4;spacingRight=4;overflow=hidden;rotatable=0;points=[[0,0.5],[1,0.5]];portConstraint=eastwest;fontSize=12;whiteSpace=wrap;html=1;" vertex="1" parent="hPiD1e1cplY4AbyPydK2-11">
          <mxGeometry y="116" width="160" height="30" as="geometry" />
        </mxCell>
        <mxCell id="F6eal7vb2Tfrm5yroSn--5" value="nOrderID&amp;nbsp; FK" style="text;strokeColor=none;fillColor=none;spacingLeft=4;spacingRight=4;overflow=hidden;rotatable=0;points=[[0,0.5],[1,0.5]];portConstraint=eastwest;fontSize=12;whiteSpace=wrap;html=1;" vertex="1" parent="hPiD1e1cplY4AbyPydK2-11">
          <mxGeometry y="146" width="160" height="30" as="geometry" />
        </mxCell>
        <mxCell id="hPiD1e1cplY4AbyPydK2-16" value="TProductItemOrder" style="swimlane;fontStyle=0;childLayout=stackLayout;horizontal=1;startSize=26;horizontalStack=0;resizeParent=1;resizeParentMax=0;resizeLast=0;collapsible=1;marginBottom=0;align=center;fontSize=14;" vertex="1" parent="1">
          <mxGeometry x="530" y="630" width="160" height="86" as="geometry" />
        </mxCell>
        <mxCell id="hPiD1e1cplY4AbyPydK2-18" value="nProductID&amp;nbsp; PK&amp;nbsp; FK" style="text;strokeColor=none;fillColor=none;spacingLeft=4;spacingRight=4;overflow=hidden;rotatable=0;points=[[0,0.5],[1,0.5]];portConstraint=eastwest;fontSize=12;whiteSpace=wrap;html=1;" vertex="1" parent="hPiD1e1cplY4AbyPydK2-16">
          <mxGeometry y="26" width="160" height="30" as="geometry" />
        </mxCell>
        <mxCell id="hPiD1e1cplY4AbyPydK2-20" value="nItem_orderID&amp;nbsp; PK&amp;nbsp; FK" style="text;strokeColor=none;fillColor=none;spacingLeft=4;spacingRight=4;overflow=hidden;rotatable=0;points=[[0,0.5],[1,0.5]];portConstraint=eastwest;fontSize=12;whiteSpace=wrap;html=1;" vertex="1" parent="hPiD1e1cplY4AbyPydK2-16">
          <mxGeometry y="56" width="160" height="30" as="geometry" />
        </mxCell>
        <mxCell id="hPiD1e1cplY4AbyPydK2-22" value="" style="edgeStyle=entityRelationEdgeStyle;fontSize=12;html=1;endArrow=ERzeroToMany;endFill=1;rounded=0;" edge="1" parent="1" source="_Zj1P9fmqI2FFC8TsWDy-5" target="hPiD1e1cplY4AbyPydK2-18">
          <mxGeometry width="100" height="100" relative="1" as="geometry">
            <mxPoint x="740" y="763.21" as="sourcePoint" />
            <mxPoint x="719.3000000000002" y="499.99999999999994" as="targetPoint" />
          </mxGeometry>
        </mxCell>
        <mxCell id="SWc6Q6dKAPUBVnQ5R0UC-1" value="TOrder" style="swimlane;fontStyle=0;childLayout=stackLayout;horizontal=1;startSize=26;horizontalStack=0;resizeParent=1;resizeParentMax=0;resizeLast=0;collapsible=1;marginBottom=0;align=center;fontSize=14;" vertex="1" parent="1">
          <mxGeometry x="1100" y="660" width="160" height="206" as="geometry" />
        </mxCell>
        <mxCell id="SWc6Q6dKAPUBVnQ5R0UC-2" value="nOrderID&amp;nbsp; PK&amp;nbsp;" style="text;strokeColor=none;fillColor=none;spacingLeft=4;spacingRight=4;overflow=hidden;rotatable=0;points=[[0,0.5],[1,0.5]];portConstraint=eastwest;fontSize=12;whiteSpace=wrap;html=1;" vertex="1" parent="SWc6Q6dKAPUBVnQ5R0UC-1">
          <mxGeometry y="26" width="160" height="30" as="geometry" />
        </mxCell>
        <mxCell id="SWc6Q6dKAPUBVnQ5R0UC-3" value="bStatus" style="text;strokeColor=none;fillColor=none;spacingLeft=4;spacingRight=4;overflow=hidden;rotatable=0;points=[[0,0.5],[1,0.5]];portConstraint=eastwest;fontSize=12;whiteSpace=wrap;html=1;" vertex="1" parent="SWc6Q6dKAPUBVnQ5R0UC-1">
          <mxGeometry y="56" width="160" height="30" as="geometry" />
        </mxCell>
        <mxCell id="SWc6Q6dKAPUBVnQ5R0UC-4" value="nTotal_amount" style="text;strokeColor=none;fillColor=none;spacingLeft=4;spacingRight=4;overflow=hidden;rotatable=0;points=[[0,0.5],[1,0.5]];portConstraint=eastwest;fontSize=12;whiteSpace=wrap;html=1;" vertex="1" parent="SWc6Q6dKAPUBVnQ5R0UC-1">
          <mxGeometry y="86" width="160" height="30" as="geometry" />
        </mxCell>
        <mxCell id="peysukpmy8HNhM9DM-nO-1" value="dCreatedAt" style="text;strokeColor=none;fillColor=none;spacingLeft=4;spacingRight=4;overflow=hidden;rotatable=0;points=[[0,0.5],[1,0.5]];portConstraint=eastwest;fontSize=12;whiteSpace=wrap;html=1;" vertex="1" parent="SWc6Q6dKAPUBVnQ5R0UC-1">
          <mxGeometry y="116" width="160" height="30" as="geometry" />
        </mxCell>
        <mxCell id="F6eal7vb2Tfrm5yroSn--3" value="nUserID&amp;nbsp; FK" style="text;strokeColor=none;fillColor=none;spacingLeft=4;spacingRight=4;overflow=hidden;rotatable=0;points=[[0,0.5],[1,0.5]];portConstraint=eastwest;fontSize=12;whiteSpace=wrap;html=1;" vertex="1" parent="SWc6Q6dKAPUBVnQ5R0UC-1">
          <mxGeometry y="146" width="160" height="30" as="geometry" />
        </mxCell>
        <mxCell id="BklEf3_34NLCtr7hUf8T-1" value="PaymentID&amp;nbsp; FK" style="text;strokeColor=none;fillColor=none;spacingLeft=4;spacingRight=4;overflow=hidden;rotatable=0;points=[[0,0.5],[1,0.5]];portConstraint=eastwest;fontSize=12;whiteSpace=wrap;html=1;" vertex="1" parent="SWc6Q6dKAPUBVnQ5R0UC-1">
          <mxGeometry y="176" width="160" height="30" as="geometry" />
        </mxCell>
        <mxCell id="peysukpmy8HNhM9DM-nO-2" value="" style="edgeStyle=entityRelationEdgeStyle;fontSize=12;html=1;endArrow=ERzeroToMany;endFill=1;rounded=0;exitX=1;exitY=0.5;exitDx=0;exitDy=0;entryX=0;entryY=0.5;entryDx=0;entryDy=0;" edge="1" parent="1" source="F6eal7vb2Tfrm5yroSn--5" target="SWc6Q6dKAPUBVnQ5R0UC-2">
          <mxGeometry width="100" height="100" relative="1" as="geometry">
            <mxPoint x="970" y="700" as="sourcePoint" />
            <mxPoint x="1100" y="820" as="targetPoint" />
          </mxGeometry>
        </mxCell>
        <mxCell id="peysukpmy8HNhM9DM-nO-4" value="TUser" style="swimlane;fontStyle=0;childLayout=stackLayout;horizontal=1;startSize=26;horizontalStack=0;resizeParent=1;resizeParentMax=0;resizeLast=0;collapsible=1;marginBottom=0;align=center;fontSize=14;" vertex="1" parent="1">
          <mxGeometry x="1420" y="570" width="160" height="236" as="geometry" />
        </mxCell>
        <mxCell id="peysukpmy8HNhM9DM-nO-5" value="nPhone_number" style="text;strokeColor=none;fillColor=none;spacingLeft=4;spacingRight=4;overflow=hidden;rotatable=0;points=[[0,0.5],[1,0.5]];portConstraint=eastwest;fontSize=12;whiteSpace=wrap;html=1;" vertex="1" parent="peysukpmy8HNhM9DM-nO-4">
          <mxGeometry y="26" width="160" height="30" as="geometry" />
        </mxCell>
        <mxCell id="peysukpmy8HNhM9DM-nO-6" value="cEmail" style="text;strokeColor=none;fillColor=none;spacingLeft=4;spacingRight=4;overflow=hidden;rotatable=0;points=[[0,0.5],[1,0.5]];portConstraint=eastwest;fontSize=12;whiteSpace=wrap;html=1;" vertex="1" parent="peysukpmy8HNhM9DM-nO-4">
          <mxGeometry y="56" width="160" height="30" as="geometry" />
        </mxCell>
        <mxCell id="peysukpmy8HNhM9DM-nO-7" value="cRole" style="text;strokeColor=none;fillColor=none;spacingLeft=4;spacingRight=4;overflow=hidden;rotatable=0;points=[[0,0.5],[1,0.5]];portConstraint=eastwest;fontSize=12;whiteSpace=wrap;html=1;" vertex="1" parent="peysukpmy8HNhM9DM-nO-4">
          <mxGeometry y="86" width="160" height="30" as="geometry" />
        </mxCell>
        <mxCell id="peysukpmy8HNhM9DM-nO-8" value="cPassword" style="text;strokeColor=none;fillColor=none;spacingLeft=4;spacingRight=4;overflow=hidden;rotatable=0;points=[[0,0.5],[1,0.5]];portConstraint=eastwest;fontSize=12;whiteSpace=wrap;html=1;" vertex="1" parent="peysukpmy8HNhM9DM-nO-4">
          <mxGeometry y="116" width="160" height="30" as="geometry" />
        </mxCell>
        <mxCell id="peysukpmy8HNhM9DM-nO-9" value="cUsername" style="text;strokeColor=none;fillColor=none;spacingLeft=4;spacingRight=4;overflow=hidden;rotatable=0;points=[[0,0.5],[1,0.5]];portConstraint=eastwest;fontSize=12;whiteSpace=wrap;html=1;" vertex="1" parent="peysukpmy8HNhM9DM-nO-4">
          <mxGeometry y="146" width="160" height="30" as="geometry" />
        </mxCell>
        <mxCell id="peysukpmy8HNhM9DM-nO-10" value="nUserID&amp;nbsp; PK&amp;nbsp;" style="text;strokeColor=none;fillColor=none;spacingLeft=4;spacingRight=4;overflow=hidden;rotatable=0;points=[[0,0.5],[1,0.5]];portConstraint=eastwest;fontSize=12;whiteSpace=wrap;html=1;" vertex="1" parent="peysukpmy8HNhM9DM-nO-4">
          <mxGeometry y="176" width="160" height="30" as="geometry" />
        </mxCell>
        <mxCell id="F6eal7vb2Tfrm5yroSn--12" value="nPaymentID&amp;nbsp; FK" style="text;strokeColor=none;fillColor=none;spacingLeft=4;spacingRight=4;overflow=hidden;rotatable=0;points=[[0,0.5],[1,0.5]];portConstraint=eastwest;fontSize=12;whiteSpace=wrap;html=1;" vertex="1" parent="peysukpmy8HNhM9DM-nO-4">
          <mxGeometry y="206" width="160" height="30" as="geometry" />
        </mxCell>
        <mxCell id="F6eal7vb2Tfrm5yroSn--6" value="TPayment" style="swimlane;fontStyle=0;childLayout=stackLayout;horizontal=1;startSize=26;horizontalStack=0;resizeParent=1;resizeParentMax=0;resizeLast=0;collapsible=1;marginBottom=0;align=center;fontSize=14;" vertex="1" parent="1">
          <mxGeometry x="1190" y="406" width="160" height="146" as="geometry" />
        </mxCell>
        <mxCell id="F6eal7vb2Tfrm5yroSn--7" value="dPayment_date" style="text;strokeColor=none;fillColor=none;spacingLeft=4;spacingRight=4;overflow=hidden;rotatable=0;points=[[0,0.5],[1,0.5]];portConstraint=eastwest;fontSize=12;whiteSpace=wrap;html=1;" vertex="1" parent="F6eal7vb2Tfrm5yroSn--6">
          <mxGeometry y="26" width="160" height="30" as="geometry" />
        </mxCell>
        <mxCell id="F6eal7vb2Tfrm5yroSn--8" value="oPayment_Method" style="text;strokeColor=none;fillColor=none;spacingLeft=4;spacingRight=4;overflow=hidden;rotatable=0;points=[[0,0.5],[1,0.5]];portConstraint=eastwest;fontSize=12;whiteSpace=wrap;html=1;" vertex="1" parent="F6eal7vb2Tfrm5yroSn--6">
          <mxGeometry y="56" width="160" height="30" as="geometry" />
        </mxCell>
        <mxCell id="F6eal7vb2Tfrm5yroSn--9" value="nTotal_amount" style="text;strokeColor=none;fillColor=none;spacingLeft=4;spacingRight=4;overflow=hidden;rotatable=0;points=[[0,0.5],[1,0.5]];portConstraint=eastwest;fontSize=12;whiteSpace=wrap;html=1;" vertex="1" parent="F6eal7vb2Tfrm5yroSn--6">
          <mxGeometry y="86" width="160" height="30" as="geometry" />
        </mxCell>
        <mxCell id="F6eal7vb2Tfrm5yroSn--10" value="nPaymentID&amp;nbsp; PK" style="text;strokeColor=none;fillColor=none;spacingLeft=4;spacingRight=4;overflow=hidden;rotatable=0;points=[[0,0.5],[1,0.5]];portConstraint=eastwest;fontSize=12;whiteSpace=wrap;html=1;" vertex="1" parent="F6eal7vb2Tfrm5yroSn--6">
          <mxGeometry y="116" width="160" height="30" as="geometry" />
        </mxCell>
        <mxCell id="F6eal7vb2Tfrm5yroSn--11" value="" style="edgeStyle=entityRelationEdgeStyle;fontSize=12;html=1;endArrow=ERzeroToMany;endFill=1;rounded=0;exitX=0;exitY=0.5;exitDx=0;exitDy=0;" edge="1" parent="1" source="F6eal7vb2Tfrm5yroSn--12" target="F6eal7vb2Tfrm5yroSn--10">
          <mxGeometry width="100" height="100" relative="1" as="geometry">
            <mxPoint x="1480" y="640" as="sourcePoint" />
            <mxPoint x="1580" y="540" as="targetPoint" />
          </mxGeometry>
        </mxCell>
        <mxCell id="F6eal7vb2Tfrm5yroSn--13" value="" style="edgeStyle=entityRelationEdgeStyle;fontSize=12;html=1;endArrow=ERzeroToMany;endFill=1;rounded=0;" edge="1" parent="1" source="peysukpmy8HNhM9DM-nO-10" target="F6eal7vb2Tfrm5yroSn--3">
          <mxGeometry width="100" height="100" relative="1" as="geometry">
            <mxPoint x="1458.2399999999996" y="641.76" as="sourcePoint" />
            <mxPoint x="1299.9999999999998" y="700.24" as="targetPoint" />
            <Array as="points">
              <mxPoint x="1248.24" y="650.76" />
            </Array>
          </mxGeometry>
        </mxCell>
        <mxCell id="hPiD1e1cplY4AbyPydK2-21" value="" style="edgeStyle=entityRelationEdgeStyle;fontSize=12;html=1;endArrow=ERzeroToMany;endFill=1;rounded=0;exitX=0;exitY=0.5;exitDx=0;exitDy=0;entryX=0.673;entryY=0.941;entryDx=0;entryDy=0;entryPerimeter=0;" edge="1" parent="1" source="hPiD1e1cplY4AbyPydK2-12" target="hPiD1e1cplY4AbyPydK2-20">
          <mxGeometry width="100" height="100" relative="1" as="geometry">
            <mxPoint x="580" y="765" as="sourcePoint" />
            <mxPoint x="700" y="690" as="targetPoint" />
          </mxGeometry>
        </mxCell>
      </root>
    </mxGraphModel>
  </diagram>
</mxfile>
